<svg xmlns="http://www.w3.org/2000/svg" viewBox="0 0 451 343" id="el_ryjZo7-3Q"><style>@-webkit-keyframes el_HJIi-oXW3Q_Animation{0%{opacity: 1;}6.67%{opacity: 0;}13.33%{opacity: 1;}20%{opacity: 0;}26.67%{opacity: 1;}33.33%{opacity: 0;}40%{opacity: 1;}46.67%{opacity: 0;}53.33%{opacity: 1;}60%{opacity: 0;}66.67%{opacity: 1;}73.33%{opacity: 0;}80%{opacity: 1;}86.67%{opacity: 0;}93.33%{opacity: 1;}100%{opacity: 0;}}@keyframes el_HJIi-oXW3Q_Animation{0%{opacity: 1;}6.67%{opacity: 0;}13.33%{opacity: 1;}20%{opacity: 0;}26.67%{opacity: 1;}33.33%{opacity: 0;}40%{opacity: 1;}46.67%{opacity: 0;}53.33%{opacity: 1;}60%{opacity: 0;}66.67%{opacity: 1;}73.33%{opacity: 0;}80%{opacity: 1;}86.67%{opacity: 0;}93.33%{opacity: 1;}100%{opacity: 0;}}#el_ryjZo7-3Q *{-webkit-animation-duration: 3s;animation-duration: 3s;-webkit-animation-iteration-count: infinite;animation-iteration-count: infinite;-webkit-animation-timing-function: cubic-bezier(0, 0, 1, 1);animation-timing-function: cubic-bezier(0, 0, 1, 1);}#el_rkzs-sQZhX{fill: red;-webkit-transform: translate(-7px, -21px);transform: translate(-7px, -21px);}#el_rJmjbjQ-hX{fill: red;-webkit-transform: translate(-7px, -21px);transform: translate(-7px, -21px);}#el_Bk4jboXb27{fill: red;-webkit-transform: translate(-7px, -21px);transform: translate(-7px, -21px);}#el_BkHsZo7WnQ{fill: red;-webkit-transform: translate(-7px, -21px);transform: translate(-7px, -21px);}#el_HJ_s-sQW3Q{-webkit-transform: translate(-7px, -21px);transform: translate(-7px, -21px);}#el_HyYjbjmZ2Q{-webkit-transform: translate(-7px, -21px);transform: translate(-7px, -21px);}#el_B1qsZjXZhm{-webkit-transform: translate(-7px, -21px);transform: translate(-7px, -21px);}#el_Bkjj-iXW3X{-webkit-transform: translate(-7px, -21px);transform: translate(-7px, -21px);}#el_HJIi-oXW3Q{-webkit-animation-name: el_HJIi-oXW3Q_Animation;animation-name: el_HJIi-oXW3Q_Animation;opacity: 1;}</style>
  <defs>
    
  </defs>
  <title>engineoverheat3</title>
  <g id="el_r1xoZjm-27">
    <g id="el_Bkbobi7W3X">
      <path d="M235.56,299.22a46.25,46.25,0,0,0,17-89.27V148.89h57.14V119H252.57v-10.2h57.14V78.82H252.57V68.62h57.14V38.69H252.57V29.16A8.19,8.19,0,0,0,244.4,21H226.72a8.18,8.18,0,0,0-8.16,8.16V210a46.25,46.25,0,0,0,17,89.27Z" id="el_rkzs-sQZhX"/>
      <path d="M19.92,272A91.17,91.17,0,0,1,50.2,253.3c48.52-17.85,95.36,14.23,101.69,18.71l8.16-8.16v-8.17a8.13,8.13,0,0,0-2.39-5.76,9.55,9.55,0,0,0-5.77-2.4C139,246.15,84.4,226,48.83,237c-10.24,3.17-21.6,9.77-28.91,10.54a9.34,9.34,0,0,0-5.76,2.4,8.14,8.14,0,0,0-2.4,5.76v8.17a8.14,8.14,0,0,0,2.4,5.76A8.37,8.37,0,0,0,19.92,272Z" id="el_rJmjbjQ-hX"/>
      <path d="M455.6,249.92a9.51,9.51,0,0,0-5.76-2.4C436.93,246.15,382.35,226,346.78,237c-10.24,3.17-21.6,9.77-28.91,10.54a9.34,9.34,0,0,0-5.76,2.4,8.14,8.14,0,0,0-2.4,5.76v8.17a8.14,8.14,0,0,0,2.4,5.76,8.36,8.36,0,0,0,5.76,2.4,91.22,91.22,0,0,1,30.27-18.71c48.53-17.85,95.36,14.23,101.7,18.71l8.16-8.16v-8.17A8.14,8.14,0,0,0,455.6,249.92Z" id="el_Bk4jboXb27"/>
      <path d="M447.8,331.19c-9.81-1-44.67-18.05-88.78-18-44.49,0-40.23,17.39-79.94,17.11-44.26-.31-50.55-21.87-89.44-17.11-32.25,4-34.46,19.6-62.92,18-31.5-1.73-36-21.3-62.24-16.67-17.09,3-40.4,15.8-49.32,16.67a9.22,9.22,0,0,0-5.76,2.4A8.14,8.14,0,0,0,7,339.35v16.33a8.14,8.14,0,0,0,2.4,5.76,8.31,8.31,0,0,0,5.76,2.4c11.78-11.62,29.2-24.7,50-24.15,25.74.68,33.14,21.62,60.88,24.15s31.59-17.49,64.29-21.43c39.54-4.76,47.31,22.95,88.77,21.43,36.46-1.33,42.86-23.21,79.24-27.55,21.37-2.54,51.2,1.19,89.46,27.55l8.16-8.16V339.35a8.14,8.14,0,0,0-2.4-5.76A9.48,9.48,0,0,0,447.8,331.19Z" id="el_BkHsZo7WnQ"/>
    </g>
  </g>
  <g id="el_HJIi-oXW3Q">
    <g id="el_S1vj-o7ZhQ">
      <path d="M235.56,299.22a46.25,46.25,0,0,0,17-89.27V148.89h57.14V119H252.57v-10.2h57.14V78.82H252.57V68.62h57.14V38.69H252.57V29.16A8.19,8.19,0,0,0,244.4,21H226.72a8.18,8.18,0,0,0-8.16,8.16V210a46.25,46.25,0,0,0,17,89.27Z" id="el_HJ_s-sQW3Q"/>
      <path d="M19.92,272A91.17,91.17,0,0,1,50.2,253.3c48.52-17.85,95.36,14.23,101.69,18.71l8.16-8.16v-8.17a8.13,8.13,0,0,0-2.39-5.76,9.55,9.55,0,0,0-5.77-2.4C139,246.15,84.4,226,48.83,237c-10.24,3.17-21.6,9.77-28.91,10.54a9.34,9.34,0,0,0-5.76,2.4,8.14,8.14,0,0,0-2.4,5.76v8.17a8.14,8.14,0,0,0,2.4,5.76A8.37,8.37,0,0,0,19.92,272Z" id="el_HyYjbjmZ2Q"/>
      <path d="M455.6,249.92a9.51,9.51,0,0,0-5.76-2.4C436.93,246.15,382.35,226,346.78,237c-10.24,3.17-21.6,9.77-28.91,10.54a9.34,9.34,0,0,0-5.76,2.4,8.14,8.14,0,0,0-2.4,5.76v8.17a8.14,8.14,0,0,0,2.4,5.76,8.36,8.36,0,0,0,5.76,2.4,91.22,91.22,0,0,1,30.27-18.71c48.53-17.85,95.36,14.23,101.7,18.71l8.16-8.16v-8.17A8.14,8.14,0,0,0,455.6,249.92Z" id="el_B1qsZjXZhm"/>
      <path d="M447.8,331.19c-9.81-1-44.67-18.05-88.78-18-44.49,0-40.23,17.39-79.94,17.11-44.26-.31-50.55-21.87-89.44-17.11-32.25,4-34.46,19.6-62.92,18-31.5-1.73-36-21.3-62.24-16.67-17.09,3-40.4,15.8-49.32,16.67a9.22,9.22,0,0,0-5.76,2.4A8.14,8.14,0,0,0,7,339.35v16.33a8.14,8.14,0,0,0,2.4,5.76,8.31,8.31,0,0,0,5.76,2.4c11.78-11.62,29.2-24.7,50-24.15,25.74.68,33.14,21.62,60.88,24.15s31.59-17.49,64.29-21.43c39.54-4.76,47.31,22.95,88.77,21.43,36.46-1.33,42.86-23.21,79.24-27.55,21.37-2.54,51.2,1.19,89.46,27.55l8.16-8.16V339.35a8.14,8.14,0,0,0-2.4-5.76A9.48,9.48,0,0,0,447.8,331.19Z" id="el_Bkjj-iXW3X"/>
    </g>
  </g>
</svg>