<svg id="Layer_1" data-name="Layer 1" xmlns="http://www.w3.org/2000/svg" width="232.14" height="226.45" viewBox="0 0 232.14 226.45">
  <title>icon22</title>
  <g>
    <path d="M318.09,429.84a11.42,11.42,0,0,1-8.13-3.35L305,421.54a11.52,11.52,0,0,1,0-16.26L437.29,273l-.13-.31a49.51,49.51,0,0,1,45.46-68.19l-21.71,31,14.78,34.69,37.66,2,18.47-26.39a50.13,50.13,0,0,1,.68,8.17,49.5,49.5,0,0,1-75.42,42.17l-.33-.2L326.22,426.49A11.42,11.42,0,0,1,318.09,429.84Z" transform="translate(-301.16 -204)"/>
    <path d="M481.65,205l-21,30-.32.46.22.51,14.55,34.15.25.57.62,0,37.07,2,.55,0,.32-.46,17.59-25.14A48,48,0,0,1,532,254a49,49,0,0,1-74.65,41.75l-.68-.42-.56.56L325.87,426.14a11.06,11.06,0,0,1-15.56,0l-4.95-4.95a11.06,11.06,0,0,1,0-15.56l132.05-132,.47-.47-.25-.62a49,49,0,0,1,44-67.48m1.35-1a50,50,0,0,0-46.3,68.88l-132,132a12,12,0,0,0,0,17l4.95,4.95a12,12,0,0,0,17,0L456.82,296.6A50,50,0,0,0,533,254a50.61,50.61,0,0,0-.9-9.44l-19,27.15-37.07-2-14.55-34.16L483.57,204Z" transform="translate(-301.16 -204)"/>
  </g>
  <g>
    <path d="M513.55,430a11.43,11.43,0,0,1-8.12-3.34l-50.31-50.1a11.1,11.1,0,0,1-1.23-1.48l-.35-.48-8.66,8.7L435,373.37l15.53-15.59-90.7-90.32.66-.67-7.62-6.4-36.23-40,4.48-4.65,41.38,34.77,6.77,7.48.44-.44,90.7,90.32,15.52-15.59,9.92,9.88-8.66,8.7.48.34a10.39,10.39,0,0,1,1.48,1.23l50.31,50.1a11.54,11.54,0,0,1,0,16.26l-7.77,7.8a11.4,11.4,0,0,1-8.14,3.37Z" transform="translate(-301.16 -204)"/>
    <path d="M321.12,216.41l41,34.43,6.42,7.09.71.78.46-.46,90,89.61.71.71.7-.71L475.89,333l9.21,9.17-7.89,7.93-.83.84,1,.68a10.94,10.94,0,0,1,1.42,1.17l50.31,50.1a11,11,0,0,1,0,15.56l-7.76,7.79a11,11,0,0,1-15.56,0l-50.3-50.1a10.84,10.84,0,0,1-1.18-1.42l-.69-1-.84.84-7.89,7.92-9.21-9.17,14.82-14.88.7-.71-.7-.71-90-89.61.69-.7-.83-.7-7.15-6-35.93-39.66,3.84-4m-.07-1.37-5.14,5.33,36.6,40.4,7.21,6.06-.64.63,90.7,90.32-15.52,15.59L444.88,384l8.6-8.64a11.7,11.7,0,0,0,1.29,1.54L505.08,427a12,12,0,0,0,17,0l7.76-7.79a12.05,12.05,0,0,0,0-17l-50.31-50.1a12.38,12.38,0,0,0-1.55-1.28l8.6-8.63-10.63-10.58-15.53,15.58-90.69-90.32-.42.43-6.47-7.14L321.05,215Z" transform="translate(-301.16 -204)"/>
  </g>
</svg>
