<svg xmlns="http://www.w3.org/2000/svg" width="344.31" height="348.18" viewBox="0 0 344.31 348.18">
  <defs>
    <style>
      .cls-1 {
        fill: #fff;
      }
    </style>
  </defs>
  <title>icon3</title>
  <g id="driver">
    <g>
      <g>
        <circle cx="302.81" cy="43.5" r="41"/>
        <path d="M800.5,146A40.5,40.5,0,1,1,760,186.5,40.55,40.55,0,0,1,800.5,146m0-1A41.5,41.5,0,1,0,842,186.5,41.5,41.5,0,0,0,800.5,145Z" transform="translate(-497.69 -143)"/>
      </g>
      <g>
        <path d="M528.22,490.68A30.17,30.17,0,0,1,504,478.55a30.09,30.09,0,0,1,6.27-42L569,393.17a29.82,29.82,0,0,1,9.67-4.73,26,26,0,0,1,9.83-1.94H712.38l35.13-139.92a18.9,18.9,0,0,1,18.35-14.29,18.58,18.58,0,0,1,4.57.57l25.08,6.29a19,19,0,0,1,13.72,22.92L771.5,412.33v.17a25.73,25.73,0,0,1-4.58,14.68,18.69,18.69,0,0,1-5.27,5.65,25.72,25.72,0,0,1-16.15,5.67H608.05l-.14.14a30.85,30.85,0,0,1-3.22,2.77L546,484.83A29.72,29.72,0,0,1,528.22,490.68Z" transform="translate(-497.69 -143)"/>
        <path d="M765.86,232.79a18.63,18.63,0,0,1,4.45.55l25.08,6.3A18.42,18.42,0,0,1,808.75,262L771,412.15l0,.12v.23a25.27,25.27,0,0,1-4.49,14.4l0,0v0a18.41,18.41,0,0,1-5.12,5.47l0,0,0,0A25.23,25.23,0,0,1,745.5,438H607.85l-.29.29a30.85,30.85,0,0,1-3.17,2.72L545.7,484.42a29.15,29.15,0,0,1-17.48,5.76A29.48,29.48,0,0,1,510.61,437l58.69-43.41a29.17,29.17,0,0,1,9.51-4.66h.05l.06,0A25,25,0,0,1,588.5,387H712.77l.19-.76L748,246.7a18.37,18.37,0,0,1,17.86-13.91m0-1A19.46,19.46,0,0,0,747,246.45L712,386H588.5a26.24,26.24,0,0,0-10,2,30.31,30.31,0,0,0-9.84,4.81L510,436.19a30.58,30.58,0,0,0-6.38,42.66h0a30.58,30.58,0,0,0,42.66,6.38L605,441.81a29.74,29.74,0,0,0,3.28-2.81H745.5a26.34,26.34,0,0,0,16.44-5.76,19.31,19.31,0,0,0,5.39-5.77,26.33,26.33,0,0,0,4.67-15h0v-.11L809.71,262.2a19.44,19.44,0,0,0-14.08-23.53l-25.08-6.3a19.36,19.36,0,0,0-4.69-.58Z" transform="translate(-497.69 -143)"/>
      </g>
    </g>
    <g>
      <path d="M702.44,361.28l-14.65,14.5,78.55,77.71L781,439Zm54.44,78.4-54.41-53.82,10.16-10.05L767,429.63Z" transform="translate(-497.69 -143)"/>
      <polygon class="cls-1" points="214.94 232.81 204.78 242.86 259.19 296.68 269.35 286.63 214.94 232.81"/>
    </g>
  </g>
  <g id="airbag">
    <ellipse cx="141.81" cy="88.5" rx="94.5" ry="88.5"/>
  </g>
</svg>
