<svg id="el_Bk4YI8MhQ" data-name="Layer 1" xmlns="http://www.w3.org/2000/svg" viewBox="0 0 334 403"><style>@-webkit-keyframes el_rJH4YL8z2X_Animation{0%{opacity: 0;}78.10%{opacity: 0;}79.05%{opacity: 1;}100%{opacity: 1;}}@keyframes el_rJH4YL8z2X_Animation{0%{opacity: 0;}78.10%{opacity: 0;}79.05%{opacity: 1;}100%{opacity: 1;}}@-webkit-keyframes el_r1-EFL8Mn7_ByGEfPG2m_Animation{0%{-webkit-transform: translate(41px, 194px) translate(-41px, -194px) translate(0px, 0px);transform: translate(41px, 194px) translate(-41px, -194px) translate(0px, 0px);}8.57%{-webkit-transform: translate(41px, 194px) translate(-41px, -194px) translate(0px, -10px);transform: translate(41px, 194px) translate(-41px, -194px) translate(0px, -10px);}14.29%{-webkit-transform: translate(41px, 194px) translate(-41px, -194px) translate(0px, -20px);transform: translate(41px, 194px) translate(-41px, -194px) translate(0px, -20px);}20%{-webkit-transform: translate(41px, 194px) translate(-41px, -194px) translate(0px, -30px);transform: translate(41px, 194px) translate(-41px, -194px) translate(0px, -30px);}25.71%{-webkit-transform: translate(41px, 194px) translate(-41px, -194px) translate(0px, -40px);transform: translate(41px, 194px) translate(-41px, -194px) translate(0px, -40px);}31.43%{-webkit-transform: translate(41px, 194px) translate(-41px, -194px) translate(0px, -50px);transform: translate(41px, 194px) translate(-41px, -194px) translate(0px, -50px);}37.14%{-webkit-transform: translate(41px, 194px) translate(-41px, -194px) translate(0px, -60px);transform: translate(41px, 194px) translate(-41px, -194px) translate(0px, -60px);}42.86%{-webkit-transform: translate(41px, 194px) translate(-41px, -194px) translate(0px, -70px);transform: translate(41px, 194px) translate(-41px, -194px) translate(0px, -70px);}48.57%{-webkit-transform: translate(41px, 194px) translate(-41px, -194px) translate(0px, -80px);transform: translate(41px, 194px) translate(-41px, -194px) translate(0px, -80px);}54.29%{-webkit-transform: translate(41px, 194px) translate(-41px, -194px) translate(0px, -90px);transform: translate(41px, 194px) translate(-41px, -194px) translate(0px, -90px);}60%{-webkit-transform: translate(41px, 194px) translate(-41px, -194px) translate(0px, -100px);transform: translate(41px, 194px) translate(-41px, -194px) translate(0px, -100px);}65.71%{-webkit-transform: translate(41px, 194px) translate(-41px, -194px) translate(0px, -110px);transform: translate(41px, 194px) translate(-41px, -194px) translate(0px, -110px);}71.43%{-webkit-transform: translate(41px, 194px) translate(-41px, -194px) translate(0px, -120px);transform: translate(41px, 194px) translate(-41px, -194px) translate(0px, -120px);}79.05%{-webkit-transform: translate(41px, 194px) translate(-41px, -194px) translate(0px, -130px);transform: translate(41px, 194px) translate(-41px, -194px) translate(0px, -130px);}100%{-webkit-transform: translate(41px, 194px) translate(-41px, -194px) translate(0px, -130px);transform: translate(41px, 194px) translate(-41px, -194px) translate(0px, -130px);}}@keyframes el_r1-EFL8Mn7_ByGEfPG2m_Animation{0%{-webkit-transform: translate(41px, 194px) translate(-41px, -194px) translate(0px, 0px);transform: translate(41px, 194px) translate(-41px, -194px) translate(0px, 0px);}8.57%{-webkit-transform: translate(41px, 194px) translate(-41px, -194px) translate(0px, -10px);transform: translate(41px, 194px) translate(-41px, -194px) translate(0px, -10px);}14.29%{-webkit-transform: translate(41px, 194px) translate(-41px, -194px) translate(0px, -20px);transform: translate(41px, 194px) translate(-41px, -194px) translate(0px, -20px);}20%{-webkit-transform: translate(41px, 194px) translate(-41px, -194px) translate(0px, -30px);transform: translate(41px, 194px) translate(-41px, -194px) translate(0px, -30px);}25.71%{-webkit-transform: translate(41px, 194px) translate(-41px, -194px) translate(0px, -40px);transform: translate(41px, 194px) translate(-41px, -194px) translate(0px, -40px);}31.43%{-webkit-transform: translate(41px, 194px) translate(-41px, -194px) translate(0px, -50px);transform: translate(41px, 194px) translate(-41px, -194px) translate(0px, -50px);}37.14%{-webkit-transform: translate(41px, 194px) translate(-41px, -194px) translate(0px, -60px);transform: translate(41px, 194px) translate(-41px, -194px) translate(0px, -60px);}42.86%{-webkit-transform: translate(41px, 194px) translate(-41px, -194px) translate(0px, -70px);transform: translate(41px, 194px) translate(-41px, -194px) translate(0px, -70px);}48.57%{-webkit-transform: translate(41px, 194px) translate(-41px, -194px) translate(0px, -80px);transform: translate(41px, 194px) translate(-41px, -194px) translate(0px, -80px);}54.29%{-webkit-transform: translate(41px, 194px) translate(-41px, -194px) translate(0px, -90px);transform: translate(41px, 194px) translate(-41px, -194px) translate(0px, -90px);}60%{-webkit-transform: translate(41px, 194px) translate(-41px, -194px) translate(0px, -100px);transform: translate(41px, 194px) translate(-41px, -194px) translate(0px, -100px);}65.71%{-webkit-transform: translate(41px, 194px) translate(-41px, -194px) translate(0px, -110px);transform: translate(41px, 194px) translate(-41px, -194px) translate(0px, -110px);}71.43%{-webkit-transform: translate(41px, 194px) translate(-41px, -194px) translate(0px, -120px);transform: translate(41px, 194px) translate(-41px, -194px) translate(0px, -120px);}79.05%{-webkit-transform: translate(41px, 194px) translate(-41px, -194px) translate(0px, -130px);transform: translate(41px, 194px) translate(-41px, -194px) translate(0px, -130px);}100%{-webkit-transform: translate(41px, 194px) translate(-41px, -194px) translate(0px, -130px);transform: translate(41px, 194px) translate(-41px, -194px) translate(0px, -130px);}}#el_Bk4YI8MhQ *{-webkit-animation-duration: 3.5s;animation-duration: 3.5s;-webkit-animation-iteration-count: infinite;animation-iteration-count: infinite;-webkit-animation-timing-function: cubic-bezier(0, 0, 1, 1);animation-timing-function: cubic-bezier(0, 0, 1, 1);}#el_r1-EFL8Mn7{fill: #00ec00;}#el_HyGVKILzhX{-webkit-transform: translate(-489px, -120px);transform: translate(-489px, -120px);}#el_SyEEFUIznm{-webkit-transform: translate(-489px, -120px);transform: translate(-489px, -120px);}#el_rJH4YL8z2X{fill: #00ec00;-webkit-transform: translate(-489px, -120px);transform: translate(-489px, -120px);-webkit-animation-name: el_rJH4YL8z2X_Animation;animation-name: el_rJH4YL8z2X_Animation;opacity: 0;}#el_r1-EFL8Mn7_ByGEfPG2m{-webkit-animation-name: el_r1-EFL8Mn7_ByGEfPG2m_Animation;animation-name: el_r1-EFL8Mn7_ByGEfPG2m_Animation;-webkit-transform: translate(41px, 194px) translate(-41px, -194px) translate(0px, 0px);transform: translate(41px, 194px) translate(-41px, -194px) translate(0px, 0px);}</style>
  <defs>
    
  </defs>
  <title>lowbattery</title>
  <rect y="369" width="231" height="34" rx="12" ry="12" id="el_HyxVYIUG2m"/>
  <g id="el_r1-EFL8Mn7_ByGEfPG2m" data-animator-group="true" data-animator-type="0"><rect x="41" y="194" width="146" height="130" rx="12" ry="12" id="el_r1-EFL8Mn7"/></g>
  <path d="M692,161H515a12,12,0,0,0-12,12V490a12,12,0,0,0,12,12H692a12,12,0,0,0,12-12V173A12,12,0,0,0,692,161ZM677,302a12,12,0,0,1-12,12H543a12,12,0,0,1-12-12V196a12,12,0,0,1,12-12H665a12,12,0,0,1,12,12Z" id="el_HyGVKILzhX"/>
  <rect x="302" width="13" height="53" rx="6.5" ry="6.5" id="el_ry7EYU8MnX"/>
  <path d="M823,147.77c0-.26,0-.51,0-.77H767V126.5a6.5,6.5,0,0,0-13,0V147H735c0,.26,0,.51,0,.77,0,37,16.54,67.66,38,72.53V429.55c-15.79,11.93-45.69,28.93-83.94,24.29-36.6-4.44-59.83-26.15-67.18-33.64l.06,11A119.6,119.6,0,0,0,661.08,457c9.18,3.7,41,16,78,3.58a109.2,109.2,0,0,0,45.83-30.25V430l.07,0V220.3C806.46,215.43,823,184.82,823,147.77Z" id="el_SyEEFUIznm"/>
  <path d="M624.7,414.12h-4.65V369.18a9.33,9.33,0,0,0-9.3-9.3H581.3a9.33,9.33,0,0,0-9.3,9.3v47.27a9.33,9.33,0,0,0,9.3,9.3H586V470.7a9.33,9.33,0,0,0,9.3,9.3L634,423.42A9.33,9.33,0,0,0,624.7,414.12Z" id="el_rJH4YL8z2X"/>
</svg>