<svg id="Layer_1" data-name="Layer 1" xmlns="http://www.w3.org/2000/svg" width="266.91" height="230.65" viewBox="0 0 266.91 230.65">
  <title>icon23</title>
  <g>
    <path d="M432.84,513.76l-1.95-.89-.06,0h-.06a11.54,11.54,0,0,1-5.09-2.38l-.42-.34-.05,0c-2.52-1.29-4.9-2.58-7.28-3.93-14.84-8.45-42.48-24.19-60.43-55.29-.21-.35-20.41-36-16.37-85.85.86-10.68,2-18.77,2.87-23.68v-.15a11.37,11.37,0,0,1,.13-3.91L352,300.12a15.34,15.34,0,0,1,.36-1.69l1.1-5.17a11.56,11.56,0,0,1,11.26-9.11,11.19,11.19,0,0,1,2.38.25l23.48,5A11.53,11.53,0,0,1,399.46,303l-9.35,44a11.56,11.56,0,0,1-11.26,9.11,11.19,11.19,0,0,1-2.38-.25l-16.7-3.55-.09.52a125.36,125.36,0,0,0,32.84,108l.39.41,11.46-14a11.54,11.54,0,0,1,16.19-1.64l34.85,28.47A11.54,11.54,0,0,1,457,490.23l-14.33,17.54L441,511.11Z" transform="translate(-340.09 -283.65)"/>
    <path d="M364.74,284.65a11,11,0,0,1,2.28.24l23.47,5A11,11,0,0,1,399,302.92l-9.35,44a11,11,0,0,1-13.05,8.47L360.38,352l-1-.21-.17,1a125.82,125.82,0,0,0,33,108.39l.78.82.72-.87,11.1-13.6A11,11,0,0,1,420.24,446l34.85,28.47a11,11,0,0,1,1.56,15.48l-14.29,17.5-.07.08-.05.09-1.58,3.1-7.79,2.54-1.77-.82-.11,0-.12,0a11,11,0,0,1-4.88-2.28l-.37-.3-.08-.07-.1-.05c-2.51-1.28-4.89-2.56-7.26-3.91-14.8-8.43-42.36-24.12-60.25-55.11-.2-.35-20.33-35.9-16.31-85.56.87-10.65,2-18.73,2.87-23.63l0-.15,0-.15a10.7,10.7,0,0,1,.12-3.75l7.89-37.16v-.06a15,15,0,0,1,.34-1.59v-.07l1.09-5.14a11.05,11.05,0,0,1,10.77-8.71m0-1A12,12,0,0,0,353,293.16l-1.09,5.14a16.61,16.61,0,0,0-.37,1.72l-7.89,37.15a11.77,11.77,0,0,0-.13,4.09c-.86,5-2,13.1-2.88,23.72-4.1,50.58,16.43,86.14,16.43,86.14,18,31.22,45.94,47.11,60.63,55.48,2.61,1.48,5.05,2.79,7.3,3.93l.37.31a11.87,11.87,0,0,0,5.32,2.48l2.13,1,8.56-2.78c.59-1.16,1.17-2.32,1.76-3.47l14.3-17.5a12,12,0,0,0-1.71-16.89L420.87,445.2A12,12,0,0,0,404,446.9l-11.11,13.59A124.85,124.85,0,0,1,360.18,353l16.18,3.44a11.84,11.84,0,0,0,2.49.26,12.05,12.05,0,0,0,11.75-9.5l9.34-44a12,12,0,0,0-9.24-14.23l-23.48-5a11.68,11.68,0,0,0-2.48-.26Z" transform="translate(-340.09 -283.65)"/>
  </g>
  <path d="M571.82,310.43l6.64,2.13,5.9,1.89-2.18,1-10.69,5.1.33-10.16m-1,31,11.91,3.58-12.18,4.84.27-8.42m-6.63-41.9-.8,24.44-4.59,2.65L542,316l-2.88,4.54,14.4,9.14-13.06,7.54,2.55,4.42,15.37-8.88L563,335.7l-.86,26.14L607,344l-39.71-11.94-.55-.35L606,313l-41.83-13.43Z" transform="translate(-340.09 -283.65)"/>
  <g>
    <path d="M450.58,404.59c.95-1.67,7.84-14.28,1.67-25.18-6.47-11.43-21.83-11.24-23.55-11.19a2.74,2.74,0,0,1-.05-2.54,5.3,5.3,0,0,1,2.15-2.36l.31-.18a5.27,5.27,0,0,1,3.08-.79,3,3,0,0,1,2.22,1.22c2.48,3,16.53,4.18,21.18,11.43,4.85,7.58-.63,21.74.71,24.94a3.17,3.17,0,0,1,0,2.54,5.2,5.2,0,0,1-2.14,2.35l-.31.19Z" transform="translate(-340.09 -283.65)"/>
    <path d="M433.85,362.33a5.43,5.43,0,0,0-2.74.81l-.31.18a5.3,5.3,0,0,0-2.15,2.36,2.74,2.74,0,0,0,.05,2.54h.62c3.41,0,17,.65,22.93,11.2,6.17,10.9-.72,23.51-1.67,25.18l5.31.43.31-.19a5.2,5.2,0,0,0,2.14-2.35,3.17,3.17,0,0,0,0-2.54c-1.34-3.2,4.14-17.36-.71-24.94-4.65-7.25-18.7-8.4-21.18-11.43a3,3,0,0,0-2.22-1.22l-.34,0Z" transform="translate(-340.09 -283.65)"/>
  </g>
  <g>
    <path d="M448.44,338.68a.15.15,0,0,1,0-.08l.1-.07.11,0a1.34,1.34,0,0,1,.45.32Z" transform="translate(-340.09 -283.65)"/>
    <path d="M448.51,334.53a3.59,3.59,0,0,0-1.91.52l-.31.18a4,4,0,0,0-1.82,2.9,6.1,6.1,0,0,0,.84,3.85,51.36,51.36,0,0,1,31.38,24.2,50.7,50.7,0,0,1,5.77,37.55l6.43,2.29.31-.19a3.91,3.91,0,0,0,1.81-2.9,6.9,6.9,0,0,0-.83-3.84c-2.57-5.26-.44-25-8.53-37.95-7.74-12.4-24.75-18.46-28.63-23.81a6.77,6.77,0,0,0-3-2.53,4.46,4.46,0,0,0-1.51-.27Z" transform="translate(-340.09 -283.65)"/>
  </g>
  <g>
    <path d="M517,393.12c0-.08,0-.15,0-.23,0,.11.1.21.14.31ZM469.5,314l-1.37-.59a4.7,4.7,0,0,1-.28-1.18A6.86,6.86,0,0,1,469.5,314Z" transform="translate(-340.09 -283.65)"/>
    <path d="M467.31,307.94a3,3,0,0,0-1.56.41l-.31.19a3.75,3.75,0,0,0-1.59,3.27,9.4,9.4,0,0,0,1.36,4.73c2.25.81,22.28,8.4,36.68,33,13.71,23.44,11.19,43.32,10.82,45.93l7.18,3.55.31-.19a3.75,3.75,0,0,0,1.59-3.27,10.84,10.84,0,0,0-1.36-4.73c-3.41-6.65-3.55-30.14-13.83-46.74-9.84-15.88-28.85-25.28-33.67-32.19a10.3,10.3,0,0,0-3.54-3.42,4.77,4.77,0,0,0-2.08-.54Z" transform="translate(-340.09 -283.65)"/>
  </g>
</svg>
