<svg id="Layer_1" data-name="Layer 1" xmlns="http://www.w3.org/2000/svg" width="581.43" height="229.18" viewBox="0 0 581.43 229.18">
  <defs>
    <style>
      .cls-1 {
        fill: #fff;
      }
    </style>
  </defs>
  <title>icon14</title>
  <g>
    <rect x="557.5" y="315.5" width="336" height="15" transform="translate(-358.3 174.2) rotate(-30)"/>
    <path class="cls-1" d="M867.06,233.19l7,12.12L583.94,412.81l-7-12.12,290.12-167.5m.37-1.37L575.57,400.32l8,13.86,291.86-168.5-8-13.86Z" transform="translate(-294 -231.82)"/>
  </g>
  <g>
    <path d="M588.5,460.5a13.94,13.94,0,0,1-14-13.52v-.48h-224V447a14,14,0,0,1-28,0v-.48H312.09a17.61,17.61,0,0,1-17.59-17.18l277-56.91c15.63,0,56,1.9,56,9.68v46.82a17.61,17.61,0,0,1-17.59,17.59h-7.42V447A13.94,13.94,0,0,1,588.5,460.5Z" transform="translate(-294 -231.82)"/>
    <path class="cls-1" d="M571.54,372.91c1.3,0,14.78.12,28.09,1.34,24.7,2.26,27.37,6.23,27.37,7.84v46.82A17.1,17.1,0,0,1,609.91,446H602l0,1a13.49,13.49,0,0,1-27,0l0-1H350l0,1a13.49,13.49,0,0,1-27,0l0-1h-10.9A17.11,17.11,0,0,1,295,429.73l276.52-56.82m-.1-1L294,428.91A18.09,18.09,0,0,0,312.09,447H322A14.48,14.48,0,0,0,351,447H574A14.48,14.48,0,0,0,603,447h6.94A18.09,18.09,0,0,0,628,428.91V382.09c0-10-56.56-10.18-56.56-10.18Z" transform="translate(-294 -231.82)"/>
  </g>
  <path d="M381.72,369,395,346l-68.31,1.94L342.93,378l2-.06c6.81,7.78,46.49,52.65,52.09,48.58l13-9.43C413.79,414.33,396.7,387.74,381.72,369Z" transform="translate(-294 -231.82)"/>
</svg>
