<svg xmlns="http://www.w3.org/2000/svg" width="297.23" height="307" viewBox="0 0 297.23 307">
  <defs>
    <style>
      .cls-1 {
        fill: #fff;
      }
    </style>
  </defs>
  <title>icon6</title>
  <g id="passanger">
    <g>
      <g>
        <circle cx="141.65" cy="50" r="49.5"/>
        <path d="M581,169a49,49,0,1,1-49,49,49.05,49.05,0,0,1,49-49m0-1a50,50,0,1,0,50,50,50,50,0,0,0-50-50Z" transform="translate(-439.35 -168)"/>
      </g>
      <g>
        <rect x="54.15" y="109.5" width="182" height="197" rx="53.83" ry="53.83"/>
        <path d="M621.67,278A53.39,53.39,0,0,1,675,331.33v89.34A53.39,53.39,0,0,1,621.67,474H547.33A53.39,53.39,0,0,1,494,420.67V331.33A53.39,53.39,0,0,1,547.33,278h74.34m0-1H547.33A54.49,54.49,0,0,0,493,331.33v89.34A54.49,54.49,0,0,0,547.33,475h74.34A54.49,54.49,0,0,0,676,420.67V331.33A54.49,54.49,0,0,0,621.67,277Z" transform="translate(-439.35 -168)"/>
      </g>
    </g>
  </g>
  <g id="Layer_2" data-name="Layer 2">
    <g>
      <path class="cls-1" d="M651.53,296.06l-2.34-3.52a11,11,0,0,0-15.25-3.07l-147.7,98.24A11,11,0,0,0,483.17,403l2.33,3.51a10.89,10.89,0,0,0,2.87,2.91l12.88-.17,147.21-97.9a10.8,10.8,0,0,0,2.56-2.38A11,11,0,0,0,651.53,296.06Z" transform="translate(-439.35 -168)"/>
      <path d="M736.53,416.62a10.63,10.63,0,0,0-10.73-10.45l-224.55,3-12.88.17a10.89,10.89,0,0,1-2.87-2.91L483.17,403a11,11,0,0,1,3.07-15.25l147.7-98.24a11,11,0,0,1,15.25,3.07l2.34,3.52a11,11,0,0,1-.51,12.87l46.54-31a11,11,0,0,0,3.07-15.25l-2.33-3.51A11,11,0,0,0,683,256.14L451.87,409.88l-2.07,0a10.63,10.63,0,0,0-10.45,10.73l.06,4.06a10.55,10.55,0,0,0,3,7.27l1.13,1.7a11,11,0,0,0,15.25,3.06l2.61-1.73,33.47-.46a10.63,10.63,0,0,1-7.41-9.94l-.05-4.07A10.62,10.62,0,0,1,497.9,409.8l170.77-2.31a10.62,10.62,0,0,1,10.74,10.45l.05,4.06a10.6,10.6,0,0,1-7.13,10.14l53.81-.72a10.63,10.63,0,0,0,10.45-10.74Z" transform="translate(-439.35 -168)"/>
      <path class="cls-1" d="M679.46,422l-.05-4.06a10.62,10.62,0,0,0-10.74-10.45L497.9,409.8a10.62,10.62,0,0,0-10.44,10.73l.05,4.07a10.63,10.63,0,0,0,7.41,9.94,10.22,10.22,0,0,0,3.33.5L669,432.73a10.1,10.1,0,0,0,3.31-.59A10.6,10.6,0,0,0,679.46,422Z" transform="translate(-439.35 -168)"/>
    </g>
  </g>
</svg>
