<svg xmlns="http://www.w3.org/2000/svg" viewBox="0 0 298 285"><defs><style>.cls-1{fill:#333;}.cls-2{fill:#fff;}</style></defs><title>icon3</title><g id="exhaust"><path d="M759,256V213H671v43h12v47.14a96.43,96.43,0,1,0,66,59.8V256Z" transform="translate(-523 -213)"/></g><g id="intake"><path class="cls-1" d="M627,497a103,103,0,0,1-11.84-205.32h.11l.11,0A10.78,10.78,0,0,1,619,291H792.75l.27-.58A11,11,0,0,1,803,284h6a11,11,0,0,1,11,11v54a11,11,0,0,1-11,11h-6a11,11,0,0,1-10-6.42l-.27-.58H721.52l.58,1.38A103.05,103.05,0,0,1,627,497Z" transform="translate(-523 -213)"/><path class="cls-2" d="M809,285a10,10,0,0,1,10,10v54a10,10,0,0,1-10,10h-6a10,10,0,0,1-9.07-5.84l-.54-1.16H720l1.16,2.77a102,102,0,1,1-105.91-62.09l.23,0,.21-.08A9.91,9.91,0,0,1,619,292H793.39l.54-1.16A10,10,0,0,1,803,285h6m0-2h-6a12,12,0,0,0-10.89,7H619a11.86,11.86,0,0,0-4,.69A103.95,103.95,0,1,0,723,354h69.09A12,12,0,0,0,803,361h6a12,12,0,0,0,12-12V295a12,12,0,0,0-12-12Z" transform="translate(-523 -213)"/><ellipse class="cls-2" cx="99" cy="177.61" rx="47" ry="47.39"/><circle class="cls-1" cx="98.5" cy="177.5" r="17.5"/><polygon class="cls-1" points="135.15 209.9 121.36 214.88 112.73 190.98 137.74 195.46 135.15 209.9"/><polygon class="cls-1" points="141.37 162.96 137.57 177.13 113.03 170.55 131 152.59 141.37 162.96"/><polygon class="cls-1" points="92.6 129.86 106 135.84 95.65 159.04 80.73 138.48 92.6 129.86"/><polygon class="cls-1" points="51.89 178.59 57.06 164.87 80.83 173.82 61.19 189.94 51.89 178.59"/><polygon class="cls-1" points="76.87 220.1 67.56 208.76 87.21 192.65 91.34 217.72 76.87 220.1"/></g></svg>