<svg xmlns="http://www.w3.org/2000/svg" viewBox="0 0 280 285" id="el_BkJhp7b3Q"><style>@-webkit-keyframes el_SkoJn6mZhX_Animation{0%{opacity: 0;}6.67%{opacity: 1;}13.33%{opacity: 0;}20%{opacity: 1;}26.67%{opacity: 0;}33.33%{opacity: 1;}40%{opacity: 0;}46.67%{opacity: 1;}53.33%{opacity: 0;}60%{opacity: 1;}66.67%{opacity: 0;}73.33%{opacity: 1;}80%{opacity: 0;}86.67%{opacity: 1;}93.33%{opacity: 0;}100%{opacity: 1;}}@keyframes el_SkoJn6mZhX_Animation{0%{opacity: 0;}6.67%{opacity: 1;}13.33%{opacity: 0;}20%{opacity: 1;}26.67%{opacity: 0;}33.33%{opacity: 1;}40%{opacity: 0;}46.67%{opacity: 1;}53.33%{opacity: 0;}60%{opacity: 1;}66.67%{opacity: 0;}73.33%{opacity: 1;}80%{opacity: 0;}86.67%{opacity: 1;}93.33%{opacity: 0;}100%{opacity: 1;}}#el_BkJhp7b3Q *{-webkit-animation-duration: 3s;animation-duration: 3s;-webkit-animation-iteration-count: infinite;animation-iteration-count: infinite;-webkit-animation-timing-function: cubic-bezier(0, 0, 1, 1);animation-timing-function: cubic-bezier(0, 0, 1, 1);}#el_Hy7yhTmWh7{-webkit-transform: translate(-559.14px, -175.08px);transform: translate(-559.14px, -175.08px);}#el_SyNk2pXWhQ{-webkit-transform: translate(-559.14px, -175.08px);transform: translate(-559.14px, -175.08px);}#el_HkD1haQ-2X{fill: #fff;-webkit-transform: translate(-559.14px, -175.08px);transform: translate(-559.14px, -175.08px);}#el_SJ512pmWnQ{fill: #fff;-webkit-transform: translate(-559.14px, -175.08px);transform: translate(-559.14px, -175.08px);}#el_H1R1haX-2m{fill: #c1272d;-webkit-transform: translate(-559.14px, -175.08px);transform: translate(-559.14px, -175.08px);}#el_HJkgk36mbhX{-webkit-transform: translate(-559.14px, -175.08px);transform: translate(-559.14px, -175.08px);}#el_ByZlk26mWhm{fill: #c1272d;}#el_BJMeJnpX-nm{fill: #fff;-webkit-transform: translate(-559.14px, -175.08px);transform: translate(-559.14px, -175.08px);}#el_rJVx1np7-27{fill: #c1272d;}#el_rJSe1n6m-hQ{fill: #fff;-webkit-transform: translate(-559.14px, -175.08px);transform: translate(-559.14px, -175.08px);}#el_SkoJn6mZhX{-webkit-animation-name: el_SkoJn6mZhX_Animation;animation-name: el_SkoJn6mZhX_Animation;opacity: 0;}</style>
  <defs>
    
  </defs>
  <title>hazardlights</title>
  <g id="el_ryey2pX-hX" data-name="Layer 1">
    <g id="el_SJbynTQbhQ">
      <g id="el_rkzkhTmbn7">
        <path d="M695.49,176.21,838.64,456.69l-278.7,3.75ZM590.34,441.42l218.07-2.93L696.4,219Z" id="el_Hy7yhTmWh7"/>
        <path d="M695.5,177.34,837.83,456.2l-277.1,3.73L695.5,177.34m-106,264.6,1.61,0L807.61,439l1.61,0-.73-1.43L697.31,219.71l-.93-1.81-.87,1.83L590.24,440.48l-.7,1.46M695.47,175.08,559.14,461l280.31-3.77-144-282.1ZM591.14,440.91,696.41,220.16,807.59,438l-216.45,2.91Z" id="el_SyNk2pXWhQ"/>
      </g>
      <g id="el_H1ryn6QbhX">
        <polygon points="137.5 62.03 236.29 255.58 43.96 258.17 137.5 62.03" id="el_SyIynTQ-h7"/>
        <path d="M696.87,254.05l86.39,169.28-168.2,2.26,81.81-171.54m-.46-33.89L591.14,440.91,807.59,438,696.41,220.16Z" id="el_HkD1haQ-2X"/>
      </g>
    </g>
    <g id="el_r1O12pmZ27">
      <polygon points="135.42 118.01 187.87 226.98 82.97 229.86 135.42 118.01" id="el_H1tknpQ-hX"/>
      <path d="M694.6,301.25l46.91,97.46-93.82,2.57,46.91-100m-.08-16.31-58,123.65,116-3.18-58-120.47Z" id="el_SJ512pmWnQ"/>
    </g>
  </g>
  <g id="el_SkoJn6mZhX" data-name="Layer 2">
    <g id="el_B12yn67bh7">
      <g id="el_rk61n6QW27">
        <path d="M695.49,176.21,838.64,456.69l-278.7,3.75ZM590.34,441.42l218.07-2.93L696.4,219Z" id="el_H1R1haX-2m"/>
        <path d="M695.5,177.34,837.83,456.2l-277.1,3.73L695.5,177.34m-106,264.6,1.61,0L807.61,439l1.61,0-.73-1.43L697.31,219.71l-.93-1.81-.87,1.83L590.24,440.48l-.7,1.46M695.47,175.08,559.14,461l280.31-3.77-144-282.1ZM591.14,440.91,696.41,220.16,807.59,438l-216.45,2.91Z" id="el_HJkgk36mbhX"/>
      </g>
      <g id="el_Skge1nT7W3Q">
        <polygon points="137.5 62.03 236.29 255.58 43.96 258.17 137.5 62.03" id="el_ByZlk26mWhm"/>
        <path d="M696.87,254.05l86.39,169.28-168.2,2.26,81.81-171.54m-.46-33.89L591.14,440.91,807.59,438,696.41,220.16Z" id="el_BJMeJnpX-nm"/>
      </g>
    </g>
    <g id="el_S1mg126XZ3m">
      <polygon points="136.42 118.01 188.87 226.98 83.97 229.86 136.42 118.01" id="el_rJVx1np7-27"/>
      <path d="M695.6,301.25l46.91,97.46-93.82,2.57,46.91-100m-.08-16.31-58,123.65,116-3.18-58-120.47Z" id="el_rJSe1n6m-hQ"/>
    </g>
  </g>
</svg>