<svg id="el_BJQl3ndjNhm" data-name="Layer 1" xmlns="http://www.w3.org/2000/svg" viewBox="0 0 155 166"><style>@-webkit-keyframes el_r1ExnnOsNh7_H1vTOsE2Q_Animation{0%{-webkit-transform: translate(77.5px, 83px) rotate(0deg) translate(-77.5px, -83px);transform: translate(77.5px, 83px) rotate(0deg) translate(-77.5px, -83px);}16.67%{-webkit-transform: translate(77.5px, 83px) rotate(45deg) translate(-77.5px, -83px);transform: translate(77.5px, 83px) rotate(45deg) translate(-77.5px, -83px);}33.33%{-webkit-transform: translate(77.5px, 83px) rotate(0deg) translate(-77.5px, -83px);transform: translate(77.5px, 83px) rotate(0deg) translate(-77.5px, -83px);}50%{-webkit-transform: translate(77.5px, 83px) rotate(-60deg) translate(-77.5px, -83px);transform: translate(77.5px, 83px) rotate(-60deg) translate(-77.5px, -83px);}66.67%{-webkit-transform: translate(77.5px, 83px) rotate(0deg) translate(-77.5px, -83px);transform: translate(77.5px, 83px) rotate(0deg) translate(-77.5px, -83px);}83.33%{-webkit-transform: translate(77.5px, 83px) rotate(45deg) translate(-77.5px, -83px);transform: translate(77.5px, 83px) rotate(45deg) translate(-77.5px, -83px);}100%{-webkit-transform: translate(77.5px, 83px) rotate(0deg) translate(-77.5px, -83px);transform: translate(77.5px, 83px) rotate(0deg) translate(-77.5px, -83px);}}@keyframes el_r1ExnnOsNh7_H1vTOsE2Q_Animation{0%{-webkit-transform: translate(77.5px, 83px) rotate(0deg) translate(-77.5px, -83px);transform: translate(77.5px, 83px) rotate(0deg) translate(-77.5px, -83px);}16.67%{-webkit-transform: translate(77.5px, 83px) rotate(45deg) translate(-77.5px, -83px);transform: translate(77.5px, 83px) rotate(45deg) translate(-77.5px, -83px);}33.33%{-webkit-transform: translate(77.5px, 83px) rotate(0deg) translate(-77.5px, -83px);transform: translate(77.5px, 83px) rotate(0deg) translate(-77.5px, -83px);}50%{-webkit-transform: translate(77.5px, 83px) rotate(-60deg) translate(-77.5px, -83px);transform: translate(77.5px, 83px) rotate(-60deg) translate(-77.5px, -83px);}66.67%{-webkit-transform: translate(77.5px, 83px) rotate(0deg) translate(-77.5px, -83px);transform: translate(77.5px, 83px) rotate(0deg) translate(-77.5px, -83px);}83.33%{-webkit-transform: translate(77.5px, 83px) rotate(45deg) translate(-77.5px, -83px);transform: translate(77.5px, 83px) rotate(45deg) translate(-77.5px, -83px);}100%{-webkit-transform: translate(77.5px, 83px) rotate(0deg) translate(-77.5px, -83px);transform: translate(77.5px, 83px) rotate(0deg) translate(-77.5px, -83px);}}#el_BJQl3ndjNhm *{-webkit-animation-duration: 3s;animation-duration: 3s;-webkit-animation-timing-function: cubic-bezier(0, 0, 1, 1);animation-timing-function: cubic-bezier(0, 0, 1, 1);}#el_Skren2OoNhQ{-webkit-transform: translate(-370px, -218px);transform: translate(-370px, -218px);}#el_SJLeh2ujNnm{-webkit-transform: translate(-370px, -218px);transform: translate(-370px, -218px);}#el_rydl23_jVnQ{fill: #493b3b;}#el_HkKe22uoN2m{-webkit-transform: translate(-370px, -218px);transform: translate(-370px, -218px);}#el_r1ExnnOsNh7_H1vTOsE2Q{-webkit-animation-name: el_r1ExnnOsNh7_H1vTOsE2Q_Animation;animation-name: el_r1ExnnOsNh7_H1vTOsE2Q_Animation;-webkit-transform: translate(77.5px, 83px) rotate(0deg) translate(-77.5px, -83px);transform: translate(77.5px, 83px) rotate(0deg) translate(-77.5px, -83px);}</style>
  <defs>
    
  </defs>
  <title>steeringwheel</title>
  <g id="el_r1ExnnOsNh7_H1vTOsE2Q" data-animator-group="true" data-animator-type="1"><g id="el_r1ExnnOsNh7">
    <path d="M447.5,383.5c-42.46,0-77-37-77-82.5s34.54-82.5,77-82.5,77,37,77,82.5S490,383.5,447.5,383.5Zm-66-83c0,.5,0,1,0,1.5a65.51,65.51,0,0,0,55.42,64.73l.58.09V301.5H388a9.37,9.37,0,0,1-5.65-1.89l-.77-.57Zm76,66.15.58-.1A65.3,65.3,0,0,0,512.5,302c0-.5,0-1,0-1.5l-.05-1.46-.77.57A9.37,9.37,0,0,1,506,301.5H457.5ZM506,282.5a9.59,9.59,0,0,1,2.86.44l.91.3-.28-.92a65.52,65.52,0,0,0-125,0l-.28.92.91-.3a9.59,9.59,0,0,1,2.86-.44Z" id="el_Skren2OoNhQ"/>
    <path d="M447.5,219c42.18,0,76.5,36.79,76.5,82s-34.32,82-76.5,82S371,346.21,371,301s34.32-82,76.5-82m-64,65,1.83-.58A8.92,8.92,0,0,1,388,283H506a8.92,8.92,0,0,1,2.71.42l1.83.58-.58-1.83a66.52,66.52,0,0,0-23.56-33.12,66,66,0,0,0-78.8,0A66.52,66.52,0,0,0,384,282.17l-.58,1.83M457,367.24l1.17-.2A66,66,0,0,0,513,302c0-.51,0-1,0-1.52l0-.5-.06-1.92-1.54,1.15A8.9,8.9,0,0,1,506,301H457v66.24m-19,.16V301H388a8.9,8.9,0,0,1-5.35-1.79l-1.54-1.15-.06,1.92,0,.5c0,.51,0,1,0,1.52a66,66,0,0,0,55.85,65.22l1.15.18M447.5,218c-42.8,0-77.5,37.16-77.5,83s34.7,83,77.5,83S525,346.84,525,301s-34.7-83-77.5-83ZM385,282.47a65,65,0,0,1,124,0,10,10,0,0,0-3-.47H388a10,10,0,0,0-3,.47Zm73,83.58V302h48a9.94,9.94,0,0,0,5.95-2c0,.66.05,1.32.05,2a65,65,0,0,1-54,64.05Zm-21,.18A65,65,0,0,1,382,302c0-.67,0-1.33.05-2a9.94,9.94,0,0,0,5.95,2h49v64.23Z" id="el_SJLeh2ujNnm"/>
  </g></g>
  <g id="el_Hkven2OoEh7">
    <ellipse cx="77.5" cy="76" rx="15" ry="18.5" id="el_rydl23_jVnQ"/>
    <path d="M447.5,276c8,0,14.5,8.07,14.5,18s-6.5,18-14.5,18S433,303.93,433,294s6.5-18,14.5-18m0-1c-8.56,0-15.5,8.51-15.5,19s6.94,19,15.5,19,15.5-8.51,15.5-19-6.94-19-15.5-19Z" id="el_HkKe22uoN2m"/>
  </g>
</svg>