<svg id="el_amDDhZT7_" data-name="Layer 2" xmlns="http://www.w3.org/2000/svg" viewBox="0 0 436 150"><style>@-webkit-keyframes el_s5Yvb2XSu3a_U8Lcys4Hf_Animation{0%{-webkit-transform: translate(342.3799743652344px, 114.43999862670898px) rotate(0deg) translate(-342.3799743652344px, -114.43999862670898px);transform: translate(342.3799743652344px, 114.43999862670898px) rotate(0deg) translate(-342.3799743652344px, -114.43999862670898px);}100%{-webkit-transform: translate(342.3799743652344px, 114.43999862670898px) rotate(-1800deg) translate(-342.3799743652344px, -114.43999862670898px);transform: translate(342.3799743652344px, 114.43999862670898px) rotate(-1800deg) translate(-342.3799743652344px, -114.43999862670898px);}}@keyframes el_s5Yvb2XSu3a_U8Lcys4Hf_Animation{0%{-webkit-transform: translate(342.3799743652344px, 114.43999862670898px) rotate(0deg) translate(-342.3799743652344px, -114.43999862670898px);transform: translate(342.3799743652344px, 114.43999862670898px) rotate(0deg) translate(-342.3799743652344px, -114.43999862670898px);}100%{-webkit-transform: translate(342.3799743652344px, 114.43999862670898px) rotate(-1800deg) translate(-342.3799743652344px, -114.43999862670898px);transform: translate(342.3799743652344px, 114.43999862670898px) rotate(-1800deg) translate(-342.3799743652344px, -114.43999862670898px);}}@-webkit-keyframes el_JlrUhi3YYX_YxS5SD_M3_Animation{0%{-webkit-transform: translate(108.37997436523438px, 114.43999862670898px) rotate(0deg) translate(-108.37997436523438px, -114.43999862670898px);transform: translate(108.37997436523438px, 114.43999862670898px) rotate(0deg) translate(-108.37997436523438px, -114.43999862670898px);}100%{-webkit-transform: translate(108.37997436523438px, 114.43999862670898px) rotate(-1800deg) translate(-108.37997436523438px, -114.43999862670898px);transform: translate(108.37997436523438px, 114.43999862670898px) rotate(-1800deg) translate(-108.37997436523438px, -114.43999862670898px);}}@keyframes el_JlrUhi3YYX_YxS5SD_M3_Animation{0%{-webkit-transform: translate(108.37997436523438px, 114.43999862670898px) rotate(0deg) translate(-108.37997436523438px, -114.43999862670898px);transform: translate(108.37997436523438px, 114.43999862670898px) rotate(0deg) translate(-108.37997436523438px, -114.43999862670898px);}100%{-webkit-transform: translate(108.37997436523438px, 114.43999862670898px) rotate(-1800deg) translate(-108.37997436523438px, -114.43999862670898px);transform: translate(108.37997436523438px, 114.43999862670898px) rotate(-1800deg) translate(-108.37997436523438px, -114.43999862670898px);}}@-webkit-keyframes el_HQt_hHnQo4_j2BbmBM8t_Animation{0%{-webkit-transform: translate(561.0049743652344px, 160.7400131225586px) translate(-561.0049743652344px, -160.7400131225586px) translate(0px, 0px);transform: translate(561.0049743652344px, 160.7400131225586px) translate(-561.0049743652344px, -160.7400131225586px) translate(0px, 0px);}6.67%{-webkit-transform: translate(561.0049743652344px, 160.7400131225586px) translate(-561.0049743652344px, -160.7400131225586px) translate(0px, 10px);transform: translate(561.0049743652344px, 160.7400131225586px) translate(-561.0049743652344px, -160.7400131225586px) translate(0px, 10px);}13.33%{-webkit-transform: translate(561.0049743652344px, 160.7400131225586px) translate(-561.0049743652344px, -160.7400131225586px) translate(0px, 0px);transform: translate(561.0049743652344px, 160.7400131225586px) translate(-561.0049743652344px, -160.7400131225586px) translate(0px, 0px);}20%{-webkit-transform: translate(561.0049743652344px, 160.7400131225586px) translate(-561.0049743652344px, -160.7400131225586px) translate(0px, 10px);transform: translate(561.0049743652344px, 160.7400131225586px) translate(-561.0049743652344px, -160.7400131225586px) translate(0px, 10px);}26.67%{-webkit-transform: translate(561.0049743652344px, 160.7400131225586px) translate(-561.0049743652344px, -160.7400131225586px) translate(0px, 0px);transform: translate(561.0049743652344px, 160.7400131225586px) translate(-561.0049743652344px, -160.7400131225586px) translate(0px, 0px);}33.33%{-webkit-transform: translate(561.0049743652344px, 160.7400131225586px) translate(-561.0049743652344px, -160.7400131225586px) translate(0px, 10px);transform: translate(561.0049743652344px, 160.7400131225586px) translate(-561.0049743652344px, -160.7400131225586px) translate(0px, 10px);}40%{-webkit-transform: translate(561.0049743652344px, 160.7400131225586px) translate(-561.0049743652344px, -160.7400131225586px) translate(0px, 0px);transform: translate(561.0049743652344px, 160.7400131225586px) translate(-561.0049743652344px, -160.7400131225586px) translate(0px, 0px);}46.67%{-webkit-transform: translate(561.0049743652344px, 160.7400131225586px) translate(-561.0049743652344px, -160.7400131225586px) translate(0px, 10px);transform: translate(561.0049743652344px, 160.7400131225586px) translate(-561.0049743652344px, -160.7400131225586px) translate(0px, 10px);}53.33%{-webkit-transform: translate(561.0049743652344px, 160.7400131225586px) translate(-561.0049743652344px, -160.7400131225586px) translate(0px, 0px);transform: translate(561.0049743652344px, 160.7400131225586px) translate(-561.0049743652344px, -160.7400131225586px) translate(0px, 0px);}60%{-webkit-transform: translate(561.0049743652344px, 160.7400131225586px) translate(-561.0049743652344px, -160.7400131225586px) translate(0px, 10px);transform: translate(561.0049743652344px, 160.7400131225586px) translate(-561.0049743652344px, -160.7400131225586px) translate(0px, 10px);}66.67%{-webkit-transform: translate(561.0049743652344px, 160.7400131225586px) translate(-561.0049743652344px, -160.7400131225586px) translate(0px, 0px);transform: translate(561.0049743652344px, 160.7400131225586px) translate(-561.0049743652344px, -160.7400131225586px) translate(0px, 0px);}73.33%{-webkit-transform: translate(561.0049743652344px, 160.7400131225586px) translate(-561.0049743652344px, -160.7400131225586px) translate(0px, 10px);transform: translate(561.0049743652344px, 160.7400131225586px) translate(-561.0049743652344px, -160.7400131225586px) translate(0px, 10px);}80%{-webkit-transform: translate(561.0049743652344px, 160.7400131225586px) translate(-561.0049743652344px, -160.7400131225586px) translate(0px, 0px);transform: translate(561.0049743652344px, 160.7400131225586px) translate(-561.0049743652344px, -160.7400131225586px) translate(0px, 0px);}86.67%{-webkit-transform: translate(561.0049743652344px, 160.7400131225586px) translate(-561.0049743652344px, -160.7400131225586px) translate(0px, 10px);transform: translate(561.0049743652344px, 160.7400131225586px) translate(-561.0049743652344px, -160.7400131225586px) translate(0px, 10px);}93.33%{-webkit-transform: translate(561.0049743652344px, 160.7400131225586px) translate(-561.0049743652344px, -160.7400131225586px) translate(0px, 0px);transform: translate(561.0049743652344px, 160.7400131225586px) translate(-561.0049743652344px, -160.7400131225586px) translate(0px, 0px);}100%{-webkit-transform: translate(561.0049743652344px, 160.7400131225586px) translate(-561.0049743652344px, -160.7400131225586px) translate(0px, 10px);transform: translate(561.0049743652344px, 160.7400131225586px) translate(-561.0049743652344px, -160.7400131225586px) translate(0px, 10px);}}@keyframes el_HQt_hHnQo4_j2BbmBM8t_Animation{0%{-webkit-transform: translate(561.0049743652344px, 160.7400131225586px) translate(-561.0049743652344px, -160.7400131225586px) translate(0px, 0px);transform: translate(561.0049743652344px, 160.7400131225586px) translate(-561.0049743652344px, -160.7400131225586px) translate(0px, 0px);}6.67%{-webkit-transform: translate(561.0049743652344px, 160.7400131225586px) translate(-561.0049743652344px, -160.7400131225586px) translate(0px, 10px);transform: translate(561.0049743652344px, 160.7400131225586px) translate(-561.0049743652344px, -160.7400131225586px) translate(0px, 10px);}13.33%{-webkit-transform: translate(561.0049743652344px, 160.7400131225586px) translate(-561.0049743652344px, -160.7400131225586px) translate(0px, 0px);transform: translate(561.0049743652344px, 160.7400131225586px) translate(-561.0049743652344px, -160.7400131225586px) translate(0px, 0px);}20%{-webkit-transform: translate(561.0049743652344px, 160.7400131225586px) translate(-561.0049743652344px, -160.7400131225586px) translate(0px, 10px);transform: translate(561.0049743652344px, 160.7400131225586px) translate(-561.0049743652344px, -160.7400131225586px) translate(0px, 10px);}26.67%{-webkit-transform: translate(561.0049743652344px, 160.7400131225586px) translate(-561.0049743652344px, -160.7400131225586px) translate(0px, 0px);transform: translate(561.0049743652344px, 160.7400131225586px) translate(-561.0049743652344px, -160.7400131225586px) translate(0px, 0px);}33.33%{-webkit-transform: translate(561.0049743652344px, 160.7400131225586px) translate(-561.0049743652344px, -160.7400131225586px) translate(0px, 10px);transform: translate(561.0049743652344px, 160.7400131225586px) translate(-561.0049743652344px, -160.7400131225586px) translate(0px, 10px);}40%{-webkit-transform: translate(561.0049743652344px, 160.7400131225586px) translate(-561.0049743652344px, -160.7400131225586px) translate(0px, 0px);transform: translate(561.0049743652344px, 160.7400131225586px) translate(-561.0049743652344px, -160.7400131225586px) translate(0px, 0px);}46.67%{-webkit-transform: translate(561.0049743652344px, 160.7400131225586px) translate(-561.0049743652344px, -160.7400131225586px) translate(0px, 10px);transform: translate(561.0049743652344px, 160.7400131225586px) translate(-561.0049743652344px, -160.7400131225586px) translate(0px, 10px);}53.33%{-webkit-transform: translate(561.0049743652344px, 160.7400131225586px) translate(-561.0049743652344px, -160.7400131225586px) translate(0px, 0px);transform: translate(561.0049743652344px, 160.7400131225586px) translate(-561.0049743652344px, -160.7400131225586px) translate(0px, 0px);}60%{-webkit-transform: translate(561.0049743652344px, 160.7400131225586px) translate(-561.0049743652344px, -160.7400131225586px) translate(0px, 10px);transform: translate(561.0049743652344px, 160.7400131225586px) translate(-561.0049743652344px, -160.7400131225586px) translate(0px, 10px);}66.67%{-webkit-transform: translate(561.0049743652344px, 160.7400131225586px) translate(-561.0049743652344px, -160.7400131225586px) translate(0px, 0px);transform: translate(561.0049743652344px, 160.7400131225586px) translate(-561.0049743652344px, -160.7400131225586px) translate(0px, 0px);}73.33%{-webkit-transform: translate(561.0049743652344px, 160.7400131225586px) translate(-561.0049743652344px, -160.7400131225586px) translate(0px, 10px);transform: translate(561.0049743652344px, 160.7400131225586px) translate(-561.0049743652344px, -160.7400131225586px) translate(0px, 10px);}80%{-webkit-transform: translate(561.0049743652344px, 160.7400131225586px) translate(-561.0049743652344px, -160.7400131225586px) translate(0px, 0px);transform: translate(561.0049743652344px, 160.7400131225586px) translate(-561.0049743652344px, -160.7400131225586px) translate(0px, 0px);}86.67%{-webkit-transform: translate(561.0049743652344px, 160.7400131225586px) translate(-561.0049743652344px, -160.7400131225586px) translate(0px, 10px);transform: translate(561.0049743652344px, 160.7400131225586px) translate(-561.0049743652344px, -160.7400131225586px) translate(0px, 10px);}93.33%{-webkit-transform: translate(561.0049743652344px, 160.7400131225586px) translate(-561.0049743652344px, -160.7400131225586px) translate(0px, 0px);transform: translate(561.0049743652344px, 160.7400131225586px) translate(-561.0049743652344px, -160.7400131225586px) translate(0px, 0px);}100%{-webkit-transform: translate(561.0049743652344px, 160.7400131225586px) translate(-561.0049743652344px, -160.7400131225586px) translate(0px, 10px);transform: translate(561.0049743652344px, 160.7400131225586px) translate(-561.0049743652344px, -160.7400131225586px) translate(0px, 10px);}}#el_amDDhZT7_ *{-webkit-animation-duration: 3s;animation-duration: 3s;-webkit-animation-iteration-count: infinite;animation-iteration-count: infinite;-webkit-animation-timing-function: cubic-bezier(0, 0, 1, 1);animation-timing-function: cubic-bezier(0, 0, 1, 1);}#el_HQt_hHnQo4{-webkit-transform: translate(-342.62px, -95.56px);transform: translate(-342.62px, -95.56px);}#el_5_BWUX9rED{-webkit-transform: translate(-342.62px, -95.56px);transform: translate(-342.62px, -95.56px);}#el_tWd9hK2-kD{fill: #fff;-webkit-transform: translate(-342.62px, -95.56px);transform: translate(-342.62px, -95.56px);}#el_D-RutXs5ik{fill: #fff;-webkit-transform: translate(-342.62px, -95.56px);transform: translate(-342.62px, -95.56px);}#el_0ZY3iyg78h{fill: #fff;-webkit-transform: translate(-342.62px, -95.56px);transform: translate(-342.62px, -95.56px);}#el_C1qMAVJLkj{fill: #fff;-webkit-transform: translate(-342.62px, -95.56px);transform: translate(-342.62px, -95.56px);}#el__gOBLNJEvm{fill: #fff;-webkit-transform: translate(-342.62px, -95.56px);transform: translate(-342.62px, -95.56px);}#el_p7ATqe8sTY{fill: #fff;-webkit-transform: translate(-342.62px, -95.56px);transform: translate(-342.62px, -95.56px);}#el_h2NvfwxIO4{fill: #fff;-webkit-transform: translate(-342.62px, -95.56px);transform: translate(-342.62px, -95.56px);}#el_uMVuT7hyDJ{stroke: #fff;stroke-miterlimit: 10;-webkit-transform: translate(-342.62px, -95.56px);transform: translate(-342.62px, -95.56px);}#el_c1YJmcw7arp{fill: #fff;stroke: #fff;stroke-miterlimit: 10;}#el_KrE0VjVAy9-{-webkit-transform: translate(-342.62px, -95.56px);transform: translate(-342.62px, -95.56px);}#el_g7Csx-b0vE3{fill: #fff;-webkit-transform: translate(-342.62px, -95.56px);transform: translate(-342.62px, -95.56px);}#el_HA9KTO9TnLG{fill: #fff;-webkit-transform: translate(-342.62px, -95.56px);transform: translate(-342.62px, -95.56px);}#el_6viIX_MbjTn{fill: #fff;-webkit-transform: translate(-342.62px, -95.56px);transform: translate(-342.62px, -95.56px);}#el_5QCszgMAB08{fill: #fff;-webkit-transform: translate(-342.62px, -95.56px);transform: translate(-342.62px, -95.56px);}#el_9GQwZ8VEI-0{fill: #fff;-webkit-transform: translate(-342.62px, -95.56px);transform: translate(-342.62px, -95.56px);}#el_3LR5tpkDfPw{fill: #fff;-webkit-transform: translate(-342.62px, -95.56px);transform: translate(-342.62px, -95.56px);}#el_SeV7ZnPTY7M{fill: #fff;-webkit-transform: translate(-342.62px, -95.56px);transform: translate(-342.62px, -95.56px);}#el_v3A3MbBd2QY{stroke: #fff;stroke-miterlimit: 10;-webkit-transform: translate(-342.62px, -95.56px);transform: translate(-342.62px, -95.56px);}#el_Ka8keK0Wy6H{fill: #fff;stroke: #fff;stroke-miterlimit: 10;}#el_HQt_hHnQo4_j2BbmBM8t{-webkit-animation-name: el_HQt_hHnQo4_j2BbmBM8t_Animation;animation-name: el_HQt_hHnQo4_j2BbmBM8t_Animation;}#el_JlrUhi3YYX_YxS5SD_M3{-webkit-animation-name: el_JlrUhi3YYX_YxS5SD_M3_Animation;animation-name: el_JlrUhi3YYX_YxS5SD_M3_Animation;}#el_s5Yvb2XSu3a_U8Lcys4Hf{-webkit-animation-name: el_s5Yvb2XSu3a_U8Lcys4Hf_Animation;animation-name: el_s5Yvb2XSu3a_U8Lcys4Hf_Animation;}</style>
  <defs>
    
  </defs>
  <title>car</title>
  <g id="el_HQt_hHnQo4_j2BbmBM8t" data-animator-group="true" data-animator-type="0"><path id="el_HQt_hHnQo4" d="M360,185c-.5-3.38-1-6.76-1.49-10.14l1-5.38L362,167l7.6-2,12.92-2.43,17.93-3.37,15.69-3,20.17-3.79,22.82-4.29,30.37-5.7,15.6-2.94,64.92-44L660,96l92,43h21v5l-6,11,1,27,2.17,5.88,9.22,5.7L779,207l-49,18-374,1,13-11-6-4a69.55,69.55,0,0,1-20-9c-.13-3.36-.25-6.72-.38-10.08l5.84-6Z"/></g>
  <g id="el_JlrUhi3YYX_YxS5SD_M3" data-animator-group="true" data-animator-type="1"><g id="el_JlrUhi3YYX">
    <g id="el_75kVYc8Dlu">
      <path d="M451,245.5A35.5,35.5,0,1,1,486.5,210,35.55,35.55,0,0,1,451,245.5Zm-11.67-16.84a22,22,0,0,0,23.11.13l.87.5-.15-.95A22,22,0,0,0,451.08,188l-.35-.69-.3.71a22,22,0,0,0-12,40.05l-.19,1.23Z" id="el_5_BWUX9rED"/>
      <path d="M451,175a35,35,0,1,1-35,35,35,35,0,0,1,35-35m-.89,12.52a22.5,22.5,0,0,0-12.23,40.77l-.31,2,1.75-1a22.47,22.47,0,0,0,23.13.13l1.51.87-.26-1.66a22.5,22.5,0,0,0-12.29-41.08l-.65-1.43-.65,1.45M451,174a36,36,0,1,0,36,36,36,36,0,0,0-36-36Zm-.23,14.5H451a21.51,21.51,0,0,1,11.61,39.61l0,.24-.22-.13a21.45,21.45,0,0,1-23.08-.14l-.47.27.08-.51a21.51,21.51,0,0,1,11.8-39.33h0Z" id="el_tWd9hK2-kD"/>
    </g>
    <g id="el_MBITO3ULKi">
      <path d="M438.6,227A21,21,0,0,1,430,210a20.56,20.56,0,0,1,.95-6.2l5.54,5.89c0,.18,0,.36,0,.54a14.29,14.29,0,0,0,3.32,9.15Zm-7.49-23.68A21.1,21.1,0,0,1,450,189l-3.42,7.56a14.23,14.23,0,0,0-7.48,5.43Z" id="el_D-RutXs5ik"/>
      <path d="M449.18,189.58l-3,6.59a14.83,14.83,0,0,0-7.4,5.38l-6.92,1.1a20.59,20.59,0,0,1,17.31-13.07m-18,15.2,4.81,5.1c0,.12,0,.24,0,.35a14.78,14.78,0,0,0,3.29,9.29l-1,6.53a20.48,20.48,0,0,1-7.06-21.27m19.59-16.28A21.51,21.51,0,0,0,439,227.83l1.36-8.6a13.74,13.74,0,0,1-3.35-9c0-.24,0-.49,0-.73l-5.45-5.79,7.82-1.24a13.86,13.86,0,0,1,7.56-5.48l3.84-8.49Z" id="el_0ZY3iyg78h"/>
    </g>
    <g id="el_XDsA9LGZu7">
      <path d="M451,231a21,21,0,0,1-10.68-2.92l7-4a14.26,14.26,0,0,0,6.95,0l7.21,4.12A20.91,20.91,0,0,1,451,231Z" id="el_C1qMAVJLkj"/>
      <path d="M454.17,224.63l6.25,3.58a20.43,20.43,0,0,1-19.08-.13l6-3.45a14.69,14.69,0,0,0,6.81,0m.15-1.07a13.64,13.64,0,0,1-7.1,0l-7.87,4.51a21.45,21.45,0,0,0,23.08.14l-8.11-4.65Z" id="el__gOBLNJEvm"/>
    </g>
    <g id="el_HoebT9QWte">
      <path d="M461.74,219.38a14.29,14.29,0,0,0,3.32-9.15c0-.18,0-.36,0-.54l5.9-6.27a21,21,0,0,1-8,23.83Zm.72-17.37a14.31,14.31,0,0,0-7.48-5.43L451.54,189a21,21,0,0,1,19.39,14.35Z" id="el_p7ATqe8sTY"/>
      <path d="M452.34,189.54a20.53,20.53,0,0,1,17.83,13.19h0l-7.41-1.17a14.83,14.83,0,0,0-7.4-5.38l-3-6.63m18.39,14.85a20.77,20.77,0,0,1,.78,5.61,20.43,20.43,0,0,1-8.16,16.37l-1.08-6.85a14.72,14.72,0,0,0,3.29-9.29c0-.11,0-.23,0-.35l5.17-5.48h0M451,188.49h-.23l3.85,8.49a13.8,13.8,0,0,1,7.55,5.48l7.82,1.24-5.45,5.79c0,.24,0,.49,0,.73a13.74,13.74,0,0,1-3.34,9l1.39,8.87A21.51,21.51,0,0,0,451,188.49Z" id="el_h2NvfwxIO4"/>
    </g>
    <path d="M464.56,210.23c0-.24,0-.49,0-.73l5.45-5.79-7.82-1.24a13.8,13.8,0,0,0-7.55-5.48l-3.85-8.49h0L446.92,197a13.86,13.86,0,0,0-7.56,5.48l-7.82,1.24L437,209.5c0,.24,0,.49,0,.73a13.74,13.74,0,0,0,3.35,9l-1.36,8.6-.08.51.47-.27,7.87-4.51a13.64,13.64,0,0,0,7.1,0l8.11,4.65.22.13,0-.24-1.39-8.87A13.74,13.74,0,0,0,464.56,210.23ZM450.77,218a8.19,8.19,0,1,1,8.18-8.18A8.19,8.19,0,0,1,450.77,218Z" id="el_uMVuT7hyDJ"/>
    <circle cx="108.14" cy="114.2" r="8.18" id="el_c1YJmcw7arp"/>
  </g></g>
  <g id="el_s5Yvb2XSu3a_U8Lcys4Hf" data-animator-group="true" data-animator-type="1"><g id="el_s5Yvb2XSu3a">
    <g id="el_ZZKG2YWAfbO">
      <path d="M685,245.5A35.5,35.5,0,1,1,720.5,210,35.55,35.55,0,0,1,685,245.5Zm-11.67-16.84a22,22,0,0,0,23.11.13l.87.5-.15-.95A22,22,0,0,0,685.08,188l-.35-.69-.3.71a22,22,0,0,0-12,40.05l-.19,1.23Z" id="el_KrE0VjVAy9-"/>
      <path d="M685,175a35,35,0,1,1-35,35,35,35,0,0,1,35-35m-.89,12.52a22.5,22.5,0,0,0-12.23,40.77l-.31,2,1.75-1a22.47,22.47,0,0,0,23.13.13l1.51.87-.26-1.66a22.5,22.5,0,0,0-12.29-41.08l-.65-1.43-.65,1.45M685,174a36,36,0,1,0,36,36,36,36,0,0,0-36-36Zm-.23,14.5H685a21.51,21.51,0,0,1,11.61,39.61l0,.24-.22-.13a21.45,21.45,0,0,1-23.08-.14l-.47.27.08-.51a21.51,21.51,0,0,1,11.8-39.33h0Z" id="el_g7Csx-b0vE3"/>
    </g>
    <g id="el_tIsI3doWVlk">
      <path d="M672.6,227A21,21,0,0,1,664,210a20.56,20.56,0,0,1,1-6.2l5.54,5.89c0,.18,0,.36,0,.54a14.29,14.29,0,0,0,3.32,9.15Zm-7.49-23.68A21.1,21.1,0,0,1,684,189l-3.42,7.56a14.23,14.23,0,0,0-7.48,5.43Z" id="el_HA9KTO9TnLG"/>
      <path d="M683.18,189.58l-3,6.59a14.83,14.83,0,0,0-7.4,5.38l-6.92,1.1a20.59,20.59,0,0,1,17.31-13.07m-18,15.2,4.81,5.1c0,.12,0,.24,0,.35a14.78,14.78,0,0,0,3.29,9.29l-1,6.53a20.48,20.48,0,0,1-7.06-21.27m19.59-16.28A21.51,21.51,0,0,0,673,227.83l1.36-8.6a13.74,13.74,0,0,1-3.35-9c0-.24,0-.49,0-.73l-5.45-5.79,7.82-1.24a13.86,13.86,0,0,1,7.56-5.48l3.84-8.49Z" id="el_6viIX_MbjTn"/>
    </g>
    <g id="el_m8VZd2F3iVI">
      <path d="M685,231a21,21,0,0,1-10.68-2.92l7-4a14.26,14.26,0,0,0,7,0l7.21,4.12A20.91,20.91,0,0,1,685,231Z" id="el_5QCszgMAB08"/>
      <path d="M688.17,224.63l6.25,3.58a20.43,20.43,0,0,1-19.08-.13l6-3.45a14.69,14.69,0,0,0,6.81,0m.15-1.07a13.64,13.64,0,0,1-7.1,0l-7.87,4.51a21.45,21.45,0,0,0,23.08.14l-8.11-4.65Z" id="el_9GQwZ8VEI-0"/>
    </g>
    <g id="el_Uhh3k1wzoUR">
      <path d="M695.74,219.38a14.29,14.29,0,0,0,3.32-9.15c0-.18,0-.36,0-.54l5.9-6.27a21,21,0,0,1-8,23.83Zm.72-17.37a14.31,14.31,0,0,0-7.48-5.43L685.54,189a21,21,0,0,1,19.39,14.35Z" id="el_3LR5tpkDfPw"/>
      <path d="M686.34,189.54a20.53,20.53,0,0,1,17.83,13.19h0l-7.41-1.17a14.83,14.83,0,0,0-7.4-5.38l-3-6.63m18.39,14.85a20.77,20.77,0,0,1,.78,5.61,20.43,20.43,0,0,1-8.16,16.37l-1.08-6.85a14.72,14.72,0,0,0,3.29-9.29c0-.11,0-.23,0-.35l5.17-5.48h0M685,188.49h-.23l3.85,8.49a13.8,13.8,0,0,1,7.55,5.48l7.82,1.24-5.45,5.79c0,.24,0,.49,0,.73a13.74,13.74,0,0,1-3.34,9l1.39,8.87A21.51,21.51,0,0,0,685,188.49Z" id="el_SeV7ZnPTY7M"/>
    </g>
    <path d="M698.56,210.23c0-.24,0-.49,0-.73l5.45-5.79-7.82-1.24a13.8,13.8,0,0,0-7.55-5.48l-3.85-8.49h0L680.92,197a13.86,13.86,0,0,0-7.56,5.48l-7.82,1.24L671,209.5c0,.24,0,.49,0,.73a13.74,13.74,0,0,0,3.35,9l-1.36,8.6-.08.51.47-.27,7.87-4.51a13.64,13.64,0,0,0,7.1,0l8.11,4.65.22.13,0-.24-1.39-8.87A13.74,13.74,0,0,0,698.56,210.23ZM684.77,218a8.19,8.19,0,1,1,8.18-8.18A8.19,8.19,0,0,1,684.77,218Z" id="el_v3A3MbBd2QY"/>
    <circle cx="342.14" cy="114.2" r="8.18" id="el_Ka8keK0Wy6H"/>
  </g></g>
</svg>