<svg id="el_BkN6qEZ3Q" data-name="Layer 1" xmlns="http://www.w3.org/2000/svg" viewBox="0 0 175 276"><style>@-webkit-keyframes el_B1YNacN-3Q_SkjJj4-hX_Animation{0%{-webkit-transform: translate(64.49661254882812px, 91.00119018554688px) translate(-64.49661254882812px, -91.00119018554688px) translate(0px, 0px);transform: translate(64.49661254882812px, 91.00119018554688px) translate(-64.49661254882812px, -91.00119018554688px) translate(0px, 0px);}10%{-webkit-transform: translate(64.49661254882812px, 91.00119018554688px) translate(-64.49661254882812px, -91.00119018554688px) translate(0px, 0px);transform: translate(64.49661254882812px, 91.00119018554688px) translate(-64.49661254882812px, -91.00119018554688px) translate(0px, 0px);}20%{-webkit-transform: translate(64.49661254882812px, 91.00119018554688px) translate(-64.49661254882812px, -91.00119018554688px) translate(0px, 80px);transform: translate(64.49661254882812px, 91.00119018554688px) translate(-64.49661254882812px, -91.00119018554688px) translate(0px, 80px);}30%{-webkit-transform: translate(64.49661254882812px, 91.00119018554688px) translate(-64.49661254882812px, -91.00119018554688px) translate(0px, 80px);transform: translate(64.49661254882812px, 91.00119018554688px) translate(-64.49661254882812px, -91.00119018554688px) translate(0px, 80px);}35.56%{-webkit-transform: translate(64.49661254882812px, 91.00119018554688px) translate(-64.49661254882812px, -91.00119018554688px) translate(0px, 40px);transform: translate(64.49661254882812px, 91.00119018554688px) translate(-64.49661254882812px, -91.00119018554688px) translate(0px, 40px);}46.67%{-webkit-transform: translate(64.49661254882812px, 91.00119018554688px) translate(-64.49661254882812px, -91.00119018554688px) translate(55px, 40px);transform: translate(64.49661254882812px, 91.00119018554688px) translate(-64.49661254882812px, -91.00119018554688px) translate(55px, 40px);}56.67%{-webkit-transform: translate(64.49661254882812px, 91.00119018554688px) translate(-64.49661254882812px, -91.00119018554688px) translate(55px, 0px);transform: translate(64.49661254882812px, 91.00119018554688px) translate(-64.49661254882812px, -91.00119018554688px) translate(55px, 0px);}66.67%{-webkit-transform: translate(64.49661254882812px, 91.00119018554688px) translate(-64.49661254882812px, -91.00119018554688px) translate(55px, 0px);transform: translate(64.49661254882812px, 91.00119018554688px) translate(-64.49661254882812px, -91.00119018554688px) translate(55px, 0px);}74.44%{-webkit-transform: translate(64.49661254882812px, 91.00119018554688px) translate(-64.49661254882812px, -91.00119018554688px) translate(55px, 80px);transform: translate(64.49661254882812px, 91.00119018554688px) translate(-64.49661254882812px, -91.00119018554688px) translate(55px, 80px);}83.33%{-webkit-transform: translate(64.49661254882812px, 91.00119018554688px) translate(-64.49661254882812px, -91.00119018554688px) translate(55px, 40px);transform: translate(64.49661254882812px, 91.00119018554688px) translate(-64.49661254882812px, -91.00119018554688px) translate(55px, 40px);}93.33%{-webkit-transform: translate(64.49661254882812px, 91.00119018554688px) translate(-64.49661254882812px, -91.00119018554688px) translate(0px, 40px);transform: translate(64.49661254882812px, 91.00119018554688px) translate(-64.49661254882812px, -91.00119018554688px) translate(0px, 40px);}100%{-webkit-transform: translate(64.49661254882812px, 91.00119018554688px) translate(-64.49661254882812px, -91.00119018554688px) translate(0px, 0px);transform: translate(64.49661254882812px, 91.00119018554688px) translate(-64.49661254882812px, -91.00119018554688px) translate(0px, 0px);}}@keyframes el_B1YNacN-3Q_SkjJj4-hX_Animation{0%{-webkit-transform: translate(64.49661254882812px, 91.00119018554688px) translate(-64.49661254882812px, -91.00119018554688px) translate(0px, 0px);transform: translate(64.49661254882812px, 91.00119018554688px) translate(-64.49661254882812px, -91.00119018554688px) translate(0px, 0px);}10%{-webkit-transform: translate(64.49661254882812px, 91.00119018554688px) translate(-64.49661254882812px, -91.00119018554688px) translate(0px, 0px);transform: translate(64.49661254882812px, 91.00119018554688px) translate(-64.49661254882812px, -91.00119018554688px) translate(0px, 0px);}20%{-webkit-transform: translate(64.49661254882812px, 91.00119018554688px) translate(-64.49661254882812px, -91.00119018554688px) translate(0px, 80px);transform: translate(64.49661254882812px, 91.00119018554688px) translate(-64.49661254882812px, -91.00119018554688px) translate(0px, 80px);}30%{-webkit-transform: translate(64.49661254882812px, 91.00119018554688px) translate(-64.49661254882812px, -91.00119018554688px) translate(0px, 80px);transform: translate(64.49661254882812px, 91.00119018554688px) translate(-64.49661254882812px, -91.00119018554688px) translate(0px, 80px);}35.56%{-webkit-transform: translate(64.49661254882812px, 91.00119018554688px) translate(-64.49661254882812px, -91.00119018554688px) translate(0px, 40px);transform: translate(64.49661254882812px, 91.00119018554688px) translate(-64.49661254882812px, -91.00119018554688px) translate(0px, 40px);}46.67%{-webkit-transform: translate(64.49661254882812px, 91.00119018554688px) translate(-64.49661254882812px, -91.00119018554688px) translate(55px, 40px);transform: translate(64.49661254882812px, 91.00119018554688px) translate(-64.49661254882812px, -91.00119018554688px) translate(55px, 40px);}56.67%{-webkit-transform: translate(64.49661254882812px, 91.00119018554688px) translate(-64.49661254882812px, -91.00119018554688px) translate(55px, 0px);transform: translate(64.49661254882812px, 91.00119018554688px) translate(-64.49661254882812px, -91.00119018554688px) translate(55px, 0px);}66.67%{-webkit-transform: translate(64.49661254882812px, 91.00119018554688px) translate(-64.49661254882812px, -91.00119018554688px) translate(55px, 0px);transform: translate(64.49661254882812px, 91.00119018554688px) translate(-64.49661254882812px, -91.00119018554688px) translate(55px, 0px);}74.44%{-webkit-transform: translate(64.49661254882812px, 91.00119018554688px) translate(-64.49661254882812px, -91.00119018554688px) translate(55px, 80px);transform: translate(64.49661254882812px, 91.00119018554688px) translate(-64.49661254882812px, -91.00119018554688px) translate(55px, 80px);}83.33%{-webkit-transform: translate(64.49661254882812px, 91.00119018554688px) translate(-64.49661254882812px, -91.00119018554688px) translate(55px, 40px);transform: translate(64.49661254882812px, 91.00119018554688px) translate(-64.49661254882812px, -91.00119018554688px) translate(55px, 40px);}93.33%{-webkit-transform: translate(64.49661254882812px, 91.00119018554688px) translate(-64.49661254882812px, -91.00119018554688px) translate(0px, 40px);transform: translate(64.49661254882812px, 91.00119018554688px) translate(-64.49661254882812px, -91.00119018554688px) translate(0px, 40px);}100%{-webkit-transform: translate(64.49661254882812px, 91.00119018554688px) translate(-64.49661254882812px, -91.00119018554688px) translate(0px, 0px);transform: translate(64.49661254882812px, 91.00119018554688px) translate(-64.49661254882812px, -91.00119018554688px) translate(0px, 0px);}}#el_BkN6qEZ3Q *{-webkit-animation-duration: 3s;animation-duration: 3s;-webkit-animation-iteration-count: infinite;animation-iteration-count: infinite;-webkit-animation-timing-function: cubic-bezier(0, 0, 1, 1);animation-timing-function: cubic-bezier(0, 0, 1, 1);}#el_rkfNTqNWnm{-webkit-transform: translate(-54px, -91px);transform: translate(-54px, -91px);}#el_HymNTq4W3m{-webkit-transform: translate(-54px, -91px);transform: translate(-54px, -91px);}#el_SkVN654Z37{fill: #fff;}#el_SyrEp5Vb2m{fill: #fff;}#el_S1INTcNWhX{fill: #fff;-webkit-transform: translate(-54px, -91px);transform: translate(-54px, -91px);}#el_HyDN6c4Zhm{fill: #fff;-webkit-transform: translate(-54px, -91px);transform: translate(-54px, -91px);}#el_Byu46qNW27{fill: #fff;-webkit-transform: translate(-54px, -91px);transform: translate(-54px, -91px);}#el_B1YNacN-3Q{fill: #d4145a;-webkit-transform: translate(-54px, -91px);transform: translate(-54px, -91px);}#el_ry9Ea5Ebnm{fill: #d4145a;stroke: #fff;stroke-miterlimit: 10;-webkit-transform: translate(-54px, -91px);transform: translate(-54px, -91px);}#el_BJoVa5NZ2Q{stroke: #fff;stroke-miterlimit: 10;-webkit-transform: translate(-54px, -91px);transform: translate(-54px, -91px);}#el_B1YNacN-3Q_SkjJj4-hX{-webkit-animation-name: el_B1YNacN-3Q_SkjJj4-hX_Animation;animation-name: el_B1YNacN-3Q_SkjJj4-hX_Animation;-webkit-transform: translate(64.49661254882812px, 91.00119018554688px) translate(-64.49661254882812px, -91.00119018554688px) translate(0px, 0px);transform: translate(64.49661254882812px, 91.00119018554688px) translate(-64.49661254882812px, -91.00119018554688px) translate(0px, 0px);}</style>
  <defs>
    
  </defs>
  <title>gearshift2</title>
  <g id="el_rygVTqV-2X">
    <g id="el_B1-ETcNb37">
      <path d="M66,366.5A11.51,11.51,0,0,1,54.5,355V226A11.51,11.51,0,0,1,66,214.5H217A11.51,11.51,0,0,1,228.5,226V355A11.51,11.51,0,0,1,217,366.5ZM180.5,345A12.52,12.52,0,0,0,193,357.5h3A12.52,12.52,0,0,0,208.5,345V236A12.52,12.52,0,0,0,196,223.5h-3A12.52,12.52,0,0,0,180.5,236v40.5h-25V236A12.52,12.52,0,0,0,143,223.5h-3A12.52,12.52,0,0,0,127.5,236v40.5h-27V236A12.52,12.52,0,0,0,88,223.5H85A12.52,12.52,0,0,0,72.5,236V345A12.52,12.52,0,0,0,85,357.5h3A12.52,12.52,0,0,0,100.5,345V304.5h27V345A12.52,12.52,0,0,0,140,357.5h3A12.52,12.52,0,0,0,155.5,345V304.5h25Z" id="el_rkfNTqNWnm"/>
      <path d="M217,215a11,11,0,0,1,11,11V355a11,11,0,0,1-11,11H66a11,11,0,0,1-11-11V226a11,11,0,0,1,11-11H217m-37,61H156V236a13,13,0,0,0-13-13h-3a13,13,0,0,0-13,13v40H101V236a13,13,0,0,0-13-13H85a13,13,0,0,0-13,13V345a13,13,0,0,0,13,13h3a13,13,0,0,0,13-13V305h26v40a13,13,0,0,0,13,13h3a13,13,0,0,0,13-13V305h24v40a13,13,0,0,0,13,13h3a13,13,0,0,0,13-13V236a13,13,0,0,0-13-13h-3a13,13,0,0,0-13,13v40m37-62H66a12,12,0,0,0-12,12V355a12,12,0,0,0,12,12H217a12,12,0,0,0,12-12V226a12,12,0,0,0-12-12Zm-62,63h26V236a12,12,0,0,1,12-12h3a12,12,0,0,1,12,12V345a12,12,0,0,1-12,12h-3a12,12,0,0,1-12-12V304H155v41a12,12,0,0,1-12,12h-3a12,12,0,0,1-12-12V304H100v41a12,12,0,0,1-12,12H85a12,12,0,0,1-12-12V236a12,12,0,0,1,12-12h3a12,12,0,0,1,12,12v41h28V236a12,12,0,0,1,12-12h3a12,12,0,0,1,12,12v41Z" id="el_HymNTq4W3m"/>
    </g>
    <rect x="101" y="186" width="26" height="27" id="el_SkVN654Z37"/>
    <rect x="46" y="186" width="28" height="27" id="el_SyrEp5Vb2m"/>
    <path d="M196,224h-3a12,12,0,0,0-12,12V345a12,12,0,0,0,12,12h3a12,12,0,0,0,12-12V236A12,12,0,0,0,196,224Z" id="el_S1INTcNWhX"/>
    <path d="M155,236a12,12,0,0,0-12-12h-3a12,12,0,0,0-12,12V345a12,12,0,0,0,12,12h3a12,12,0,0,0,12-12V236Z" id="el_HyDN6c4Zhm"/>
    <path d="M100,236a12,12,0,0,0-12-12H85a12,12,0,0,0-12,12V345a12,12,0,0,0,12,12h3a12,12,0,0,0,12-12V236Z" id="el_Byu46qNW27"/>
  </g>
  <g id="el_B1YNacN-3Q_SkjJj4-hX" data-animator-group="true" data-animator-type="0"><path d="M108.5,113a22,22,0,1,0-30.86,20.14A566.4,566.4,0,0,1,80.5,205c-.47,19.74-1.94,38.13-4,55h20a453.31,453.31,0,0,1-1.44-126.73A22,22,0,0,0,108.5,113Z" id="el_B1YNacN-3Q"/></g>
  <path d="M80.5,206.5" id="el_ry9Ea5Ebnm"/>
  <path d="M178.5,190.5" id="el_BJoVa5NZ2Q"/>
</svg>