<svg id="el_HyKuiof2m" data-name="Layer 1" xmlns="http://www.w3.org/2000/svg" viewBox="0 0 343 275"><style>@-webkit-keyframes el_ByzeFuijfh7_Animation{0%{opacity: 0;}16.67%{opacity: 1;}33.33%{opacity: 0;}50%{opacity: 0;}66.67%{opacity: 1;}83.33%{opacity: 0;}100%{opacity: 1;}}@keyframes el_ByzeFuijfh7_Animation{0%{opacity: 0;}16.67%{opacity: 1;}33.33%{opacity: 0;}50%{opacity: 0;}66.67%{opacity: 1;}83.33%{opacity: 0;}100%{opacity: 1;}}#el_HyKuiof2m *{-webkit-animation-duration: 3s;animation-duration: 3s;-webkit-animation-iteration-count: infinite;animation-iteration-count: infinite;-webkit-animation-timing-function: cubic-bezier(0, 0, 1, 1);animation-timing-function: cubic-bezier(0, 0, 1, 1);}#el_ByzYdjsM2Q{fill: #fff;-webkit-transform: translate(-41px, -49px);transform: translate(-41px, -49px);}#el_SyHY_joG27{fill: #fff;-webkit-transform: translate(-41px, -49px);transform: translate(-41px, -49px);}#el_SydtuijGnX{fill: #fff;-webkit-transform: translate(-41px, -49px);transform: translate(-41px, -49px);}#el_BkoFdjjz27{fill: #fff;-webkit-transform: translate(-41px, -49px);transform: translate(-41px, -49px);}#el_SJaFdjof27{fill: #fff;}#el_Bk0t_sif27{fill: #fff;}#el_S1glF_jiM2Q{fill: #fff;}#el_S1-gtOsiGnQ{fill: #fff;}#el_ByzeFuijfh7{fill: #fff;font-size: 54px;font-family: MyriadPro-Regular, Myriad Pro;-webkit-transform: translate(119px, 163.34px);transform: translate(119px, 163.34px);-webkit-animation-name: el_ByzeFuijfh7_Animation;animation-name: el_ByzeFuijfh7_Animation;opacity: 0;}#el_rymlYdsoGn7{letter-spacing: -0.04em;}</style>
  <defs>
    
  </defs>
  <title>carbattery</title>
  <g id="el_HJeYdjjzn7">
    <rect x="24" y="36" width="284" height="204" id="el_SkbF_jiG37"/>
    <path d="M347,87V287H67V87H347m4-4H63V291H351V83Z" id="el_ByzYdjsM2Q"/>
  </g>
  <g id="el_BkXKdjoznm">
    <rect x="2" y="239.55" width="327" height="33.91" rx="10" ry="10" id="el_H1Nt_oizhQ"/>
    <path d="M360,290.55a8,8,0,0,1,8,8v13.9a8,8,0,0,1-8,8H53a8,8,0,0,1-8-8v-13.9a8,8,0,0,1,8-8H360m0-4H53a12,12,0,0,0-12,12v13.9a12,12,0,0,0,12,12H360a12,12,0,0,0,12-12v-13.9a12,12,0,0,0-12-12Z" id="el_SyHY_joG27"/>
  </g>
  <g id="el_r1UFuisM2X">
    <rect x="56" y="2" width="49" height="30" rx="10" ry="10" id="el_HyPt_iozhQ"/>
    <path d="M136,53a8,8,0,0,1,8,8V71a8,8,0,0,1-8,8H107a8,8,0,0,1-8-8V61a8,8,0,0,1,8-8h29m0-4H107A12,12,0,0,0,95,61V71a12,12,0,0,0,12,12h29a12,12,0,0,0,12-12V61a12,12,0,0,0-12-12Z" id="el_SydtuijGnX"/>
  </g>
  <g id="el_HJKt_ioz2m">
    <rect x="227" y="2" width="49" height="30" rx="10" ry="10" id="el_By5FOjoM3m"/>
    <path d="M307,53a8,8,0,0,1,8,8V71a8,8,0,0,1-8,8H278a8,8,0,0,1-8-8V61a8,8,0,0,1,8-8h29m0-4H278a12,12,0,0,0-12,12V71a12,12,0,0,0,12,12h29a12,12,0,0,0,12-12V61a12,12,0,0,0-12-12Z" id="el_BkoFdjjz27"/>
  </g>
  <g id="el_BJnFdjsznm">
    <polygon points="79 84 79 72 67 72 67 69.5 79 69.5 79 57 81.5 57 81.5 69.5 94 69.5 94 72 81.5 72 81.5 84 79 84" id="el_SJaFdjof27"/>
    <polygon points="83.5 55 77 55 77 67.5 65 67.5 65 74 77 74 77 86 83.5 86 83.5 74 96 74 96 67.5 83.5 67.5 83.5 55 83.5 55" id="el_Bk0t_sif27"/>
  </g>
  <g id="el_SJylKOjoMhm">
    <rect x="238" y="69" width="27" height="3" id="el_S1glF_jiM2Q"/>
    <polygon points="267 67 236 67 236 74 267 74 267 67 267 67" id="el_S1-gtOsiGnQ"/>
  </g>
  <text id="el_ByzeFuijfh7">12<tspan x="55.4" y="0" id="el_rymlYdsoGn7"> </tspan><tspan x="64.91" y="0" id="el_S14xF_oiG27">V</tspan></text>
</svg>