<svg xmlns="http://www.w3.org/2000/svg" viewBox="0 0 454 285" id="el_H1JTLHZn7"><style>@-webkit-keyframes el_rJL168Bbhm_Animation{42.22%{opacity: 0;}48.89%{opacity: 1;}100%{opacity: 0;}0%{opacity: 0;}}@keyframes el_rJL168Bbhm_Animation{42.22%{opacity: 0;}48.89%{opacity: 1;}100%{opacity: 0;}0%{opacity: 0;}}@-webkit-keyframes el_rJL168Bbhm_BkUZurW2Q_Animation{47.78%{-webkit-transform: translate(298.28021240234375px, 69.57648468017578px) translate(-298.28021240234375px, -69.57648468017578px) translate(-5px, 0px);transform: translate(298.28021240234375px, 69.57648468017578px) translate(-298.28021240234375px, -69.57648468017578px) translate(-5px, 0px);}100%{-webkit-transform: translate(298.28021240234375px, 69.57648468017578px) translate(-298.28021240234375px, -69.57648468017578px) translate(100px, 0px);transform: translate(298.28021240234375px, 69.57648468017578px) translate(-298.28021240234375px, -69.57648468017578px) translate(100px, 0px);}0%{-webkit-transform: translate(298.28021240234375px, 69.57648468017578px) translate(-298.28021240234375px, -69.57648468017578px) translate(-5px, 0px);transform: translate(298.28021240234375px, 69.57648468017578px) translate(-298.28021240234375px, -69.57648468017578px) translate(-5px, 0px);}}@keyframes el_rJL168Bbhm_BkUZurW2Q_Animation{47.78%{-webkit-transform: translate(298.28021240234375px, 69.57648468017578px) translate(-298.28021240234375px, -69.57648468017578px) translate(-5px, 0px);transform: translate(298.28021240234375px, 69.57648468017578px) translate(-298.28021240234375px, -69.57648468017578px) translate(-5px, 0px);}100%{-webkit-transform: translate(298.28021240234375px, 69.57648468017578px) translate(-298.28021240234375px, -69.57648468017578px) translate(100px, 0px);transform: translate(298.28021240234375px, 69.57648468017578px) translate(-298.28021240234375px, -69.57648468017578px) translate(100px, 0px);}0%{-webkit-transform: translate(298.28021240234375px, 69.57648468017578px) translate(-298.28021240234375px, -69.57648468017578px) translate(-5px, 0px);transform: translate(298.28021240234375px, 69.57648468017578px) translate(-298.28021240234375px, -69.57648468017578px) translate(-5px, 0px);}}@-webkit-keyframes el_Sydy6IrW37_HkzuvSZnX_Animation{0%{-webkit-transform: translate(108.50001525878906px, 177.5px) rotate(0deg) translate(-108.50001525878906px, -177.5px);transform: translate(108.50001525878906px, 177.5px) rotate(0deg) translate(-108.50001525878906px, -177.5px);}45.56%{-webkit-transform: translate(108.50001525878906px, 177.5px) rotate(1440deg) translate(-108.50001525878906px, -177.5px);transform: translate(108.50001525878906px, 177.5px) rotate(1440deg) translate(-108.50001525878906px, -177.5px);}100%{-webkit-transform: translate(108.50001525878906px, 177.5px) rotate(1440deg) translate(-108.50001525878906px, -177.5px);transform: translate(108.50001525878906px, 177.5px) rotate(1440deg) translate(-108.50001525878906px, -177.5px);}}@keyframes el_Sydy6IrW37_HkzuvSZnX_Animation{0%{-webkit-transform: translate(108.50001525878906px, 177.5px) rotate(0deg) translate(-108.50001525878906px, -177.5px);transform: translate(108.50001525878906px, 177.5px) rotate(0deg) translate(-108.50001525878906px, -177.5px);}45.56%{-webkit-transform: translate(108.50001525878906px, 177.5px) rotate(1440deg) translate(-108.50001525878906px, -177.5px);transform: translate(108.50001525878906px, 177.5px) rotate(1440deg) translate(-108.50001525878906px, -177.5px);}100%{-webkit-transform: translate(108.50001525878906px, 177.5px) rotate(1440deg) translate(-108.50001525878906px, -177.5px);transform: translate(108.50001525878906px, 177.5px) rotate(1440deg) translate(-108.50001525878906px, -177.5px);}}#el_H1JTLHZn7 *{-webkit-animation-duration: 3s;animation-duration: 3s;-webkit-animation-iteration-count: infinite;animation-iteration-count: infinite;-webkit-animation-timing-function: cubic-bezier(0, 0, 1, 1);animation-timing-function: cubic-bezier(0, 0, 1, 1);}#el_rk-y6UBb3m{-webkit-transform: translate(-60px, -38px);transform: translate(-60px, -38px);}#el_BkE1TIHWnm{fill: #333;-webkit-transform: translate(-60px, -38px);transform: translate(-60px, -38px);}#el_BkH1pIB-2Q{fill: #fff;-webkit-transform: translate(-60px, -38px);transform: translate(-60px, -38px);}#el_ByvJTUrZnX{fill: #b3b3b3;-webkit-transform: translate(-60px, -38px);transform: translate(-60px, -38px);}#el_rk5yTUBZ2Q{fill: #fff;-webkit-transform: translate(-60px, -38px);transform: translate(-60px, -38px);}#el_Ski1aIB-hQ{-webkit-transform: translate(-60px, -38px);transform: translate(-60px, -38px);}#el_HJ3kp8BZhQ{fill: gray;}#el_Sydy6IrW37_HkzuvSZnX{-webkit-animation-name: el_Sydy6IrW37_HkzuvSZnX_Animation;animation-name: el_Sydy6IrW37_HkzuvSZnX_Animation;-webkit-transform: translate(108.50001525878906px, 177.5px) rotate(0deg) translate(-108.50001525878906px, -177.5px);transform: translate(108.50001525878906px, 177.5px) rotate(0deg) translate(-108.50001525878906px, -177.5px);}#el_rJL168Bbhm_BkUZurW2Q{-webkit-animation-name: el_rJL168Bbhm_BkUZurW2Q_Animation;animation-name: el_rJL168Bbhm_BkUZurW2Q_Animation;-webkit-transform: translate(298.28021240234375px, 69.57648468017578px) translate(-298.28021240234375px, -69.57648468017578px) translate(-5px, 0px);transform: translate(298.28021240234375px, 69.57648468017578px) translate(-298.28021240234375px, -69.57648468017578px) translate(-5px, 0px);}#el_rJL168Bbhm{-webkit-animation-name: el_rJL168Bbhm_Animation;animation-name: el_rJL168Bbhm_Animation;opacity: 0;}</style>
  <defs>
    
  </defs>
  <title>turbo</title>
  <g id="el_B1gkpIS-3X">
    <path d="M296,81V38H208V81h12v47.14a96.43,96.43,0,1,0,66,59.8V81Z" id="el_rk-y6UBb3m"/>
  </g>
  <g id="el_SyGJp8S-nQ">
    <g id="el_BkX1TUSZ27">
      <path d="M164,322a103,103,0,0,1-11.84-205.32h.11l.11,0A10.78,10.78,0,0,1,156,116H329.75l.27-.58A11,11,0,0,1,340,109h6a11,11,0,0,1,11,11v54a11,11,0,0,1-11,11h-6a11,11,0,0,1-10-6.42l-.27-.58H258.52l.58,1.38A103.05,103.05,0,0,1,164,322Z" id="el_BkE1TIHWnm"/>
      <path d="M346,110a10,10,0,0,1,10,10v54a10,10,0,0,1-10,10h-6a10,10,0,0,1-9.07-5.84l-.54-1.16H257l1.16,2.77a102,102,0,1,1-105.91-62.09l.23,0,.21-.08A9.91,9.91,0,0,1,156,117H330.39l.54-1.16A10,10,0,0,1,340,110h6m0-2h-6a12,12,0,0,0-10.89,7H156a11.86,11.86,0,0,0-4,.69A103.95,103.95,0,1,0,260,179h69.09A12,12,0,0,0,340,186h6a12,12,0,0,0,12-12V120a12,12,0,0,0-12-12Z" id="el_BkH1pIB-2Q"/>
    </g>
  </g>
  <g id="el_rJL168Bbhm_BkUZurW2Q" data-animator-group="true" data-animator-type="0"><g id="el_rJL168Bbhm">
    <path d="M488.73,111.39c-13.6-3.25-26.94,1.48-33.67,10.91-5.5-9.24-16.94-15.3-29.87-14.68-12.24.59-22.59,7-27.54,16l-1.21-.32c-17.19-4.1-34,4.55-37.51,19.32s7.55,30.07,24.74,34.18c10.11,2.41,20.09.41,27.31-4.66,2.4,10.76,11.87,20.18,24.79,23.27,17.19,4.1,34-4.55,37.51-19.32a24.23,24.23,0,0,0-.21-12c.94.3,1.9.58,2.88.81,17.19,4.11,34-4.54,37.51-19.31S505.92,115.49,488.73,111.39Z" id="el_ByvJTUrZnX"/>
  </g></g>
  <g id="el_Sydy6IrW37_HkzuvSZnX" data-animator-group="true" data-animator-type="1"><g id="el_Sydy6IrW37" data-name="Layer 4">
    <g id="el_S1t1pUBb3X">
      <path d="M168.5,163A52.5,52.5,0,1,0,221,215.5,52.51,52.51,0,0,0,168.5,163Zm22.31,92H145.19l-22.8-39.5,22.8-39.5h45.62l22.8,39.5Z" id="el_rk5yTUBZ2Q"/>
      <path d="M190.81,176H145.19l-22.8,39.5,22.8,39.5h45.62l22.8-39.5ZM186,247l-19.24-12L146,244.08l5.45-22-15-17L159,203.5,170.48,184,179,205l22.13,4.88-17.34,14.6Z" id="el_Ski1aIB-hQ"/>
      <polygon points="119.01 166.96 110.48 145.96 99 165.5 76.39 167.12 91.43 184.08 85.98 206.08 106.76 197.02 126 209 123.8 186.44 141.14 171.84 119.01 166.96" id="el_HJ3kp8BZhQ"/>
    </g>
  </g></g>
</svg>