<svg xmlns="http://www.w3.org/2000/svg" viewBox="0 0 955.5 352.42"><defs><style>.cls-1{fill:#4d4d4d;}.cls-2{fill:red;}.cls-3{fill:#666;}.cls-4{fill:#e6e6e6;}.cls-5{fill:#fff;}</style></defs><title>icon2</title><g id="buckle"><path class="cls-1" d="M267,419.5A11.51,11.51,0,0,1,255.5,408V336A11.51,11.51,0,0,1,267,324.5H412.5v95Z" transform="translate(-255 -132.08)"/><path d="M412,325v94H267a11,11,0,0,1-11-11V336a11,11,0,0,1,11-11H412m1-1H267a12,12,0,0,0-12,12v72a12,12,0,0,0,12,12H413V324Z" transform="translate(-255 -132.08)"/><path d="M413.5,439.75V303.25h132v136.5ZM452,331.5A12.52,12.52,0,0,0,439.5,344v55A12.52,12.52,0,0,0,452,411.5h55A12.52,12.52,0,0,0,519.5,399V344A12.52,12.52,0,0,0,507,331.5Z" transform="translate(-255 -132.08)"/><path d="M545,303.75v135.5H414V303.75H545M452,412h55a13,13,0,0,0,13-13V344a13,13,0,0,0-13-13H452a13,13,0,0,0-13,13v55a13,13,0,0,0,13,13m94-109.25H413v137.5H546V302.75ZM452,411a12,12,0,0,1-12-12V344a12,12,0,0,1,12-12h55a12,12,0,0,1,12,12v55a12,12,0,0,1-12,12Z" transform="translate(-255 -132.08)"/><rect class="cls-2" x="185.5" y="200.42" width="78" height="78" rx="11.5" ry="11.5"/><path d="M507,333a11,11,0,0,1,11,11v55a11,11,0,0,1-11,11H452a11,11,0,0,1-11-11V344a11,11,0,0,1,11-11h55m0-1H452a12,12,0,0,0-12,12v55a12,12,0,0,0,12,12h55a12,12,0,0,0,12-12V344a12,12,0,0,0-12-12Z" transform="translate(-255 -132.08)"/></g><g id="belt"><polygon class="cls-3" points="955.5 187.42 725.3 187.42 935.32 94.13 893.5 0 531.5 160.81 531.5 290.42 955.5 290.42 955.5 187.42"/><path class="cls-4" d="M698.5,325.5h-98a12,12,0,0,0-12,12v69a12,12,0,0,0,12,12h98a11.9,11.9,0,0,0,6-1.63V327.13A11.9,11.9,0,0,0,698.5,325.5ZM692,377.88A19.17,19.17,0,0,1,672.88,397H628.12A19.17,19.17,0,0,1,609,377.88V367.12A19.17,19.17,0,0,1,628.12,348h44.76A19.17,19.17,0,0,1,692,367.12Z" transform="translate(-255 -132.08)"/><path d="M786.5,292.89v-1.78a19.61,19.61,0,0,0-19.61-19.61H724.11a19.61,19.61,0,0,0-19.61,19.61V464.89a19.61,19.61,0,0,0,19.61,19.61h42.78a19.61,19.61,0,0,0,19.61-19.61v-172Z" transform="translate(-255 -132.08)"/><rect class="cls-5" x="354" y="215.92" width="83" height="49" rx="19.12" ry="19.12"/></g></svg>