<svg xmlns="http://www.w3.org/2000/svg" viewBox="0 0 228 150" id="el_CFMGwO6TR"><style>@-webkit-keyframes el_yqUN4oTU_P_VrKZ0Qybo_Animation{0%{-webkit-transform: translate(114.45500183105469px, 129.0500030517578px) rotate(-55deg) translate(-114.45500183105469px, -129.0500030517578px);transform: translate(114.45500183105469px, 129.0500030517578px) rotate(-55deg) translate(-114.45500183105469px, -129.0500030517578px);}15.56%{-webkit-transform: translate(114.45500183105469px, 129.0500030517578px) rotate(70deg) translate(-114.45500183105469px, -129.0500030517578px);transform: translate(114.45500183105469px, 129.0500030517578px) rotate(70deg) translate(-114.45500183105469px, -129.0500030517578px);}40%{-webkit-transform: translate(114.45500183105469px, 129.0500030517578px) rotate(-55deg) translate(-114.45500183105469px, -129.0500030517578px);transform: translate(114.45500183105469px, 129.0500030517578px) rotate(-55deg) translate(-114.45500183105469px, -129.0500030517578px);}52.22%{-webkit-transform: translate(114.45500183105469px, 129.0500030517578px) rotate(45deg) translate(-114.45500183105469px, -129.0500030517578px);transform: translate(114.45500183105469px, 129.0500030517578px) rotate(45deg) translate(-114.45500183105469px, -129.0500030517578px);}58.89%{-webkit-transform: translate(114.45500183105469px, 129.0500030517578px) rotate(60deg) translate(-114.45500183105469px, -129.0500030517578px);transform: translate(114.45500183105469px, 129.0500030517578px) rotate(60deg) translate(-114.45500183105469px, -129.0500030517578px);}67.78%{-webkit-transform: translate(114.45500183105469px, 129.0500030517578px) rotate(0deg) translate(-114.45500183105469px, -129.0500030517578px);transform: translate(114.45500183105469px, 129.0500030517578px) rotate(0deg) translate(-114.45500183105469px, -129.0500030517578px);}80%{-webkit-transform: translate(114.45500183105469px, 129.0500030517578px) rotate(70deg) translate(-114.45500183105469px, -129.0500030517578px);transform: translate(114.45500183105469px, 129.0500030517578px) rotate(70deg) translate(-114.45500183105469px, -129.0500030517578px);}100%{-webkit-transform: translate(114.45500183105469px, 129.0500030517578px) rotate(-55deg) translate(-114.45500183105469px, -129.0500030517578px);transform: translate(114.45500183105469px, 129.0500030517578px) rotate(-55deg) translate(-114.45500183105469px, -129.0500030517578px);}}@keyframes el_yqUN4oTU_P_VrKZ0Qybo_Animation{0%{-webkit-transform: translate(114.45500183105469px, 129.0500030517578px) rotate(-55deg) translate(-114.45500183105469px, -129.0500030517578px);transform: translate(114.45500183105469px, 129.0500030517578px) rotate(-55deg) translate(-114.45500183105469px, -129.0500030517578px);}15.56%{-webkit-transform: translate(114.45500183105469px, 129.0500030517578px) rotate(70deg) translate(-114.45500183105469px, -129.0500030517578px);transform: translate(114.45500183105469px, 129.0500030517578px) rotate(70deg) translate(-114.45500183105469px, -129.0500030517578px);}40%{-webkit-transform: translate(114.45500183105469px, 129.0500030517578px) rotate(-55deg) translate(-114.45500183105469px, -129.0500030517578px);transform: translate(114.45500183105469px, 129.0500030517578px) rotate(-55deg) translate(-114.45500183105469px, -129.0500030517578px);}52.22%{-webkit-transform: translate(114.45500183105469px, 129.0500030517578px) rotate(45deg) translate(-114.45500183105469px, -129.0500030517578px);transform: translate(114.45500183105469px, 129.0500030517578px) rotate(45deg) translate(-114.45500183105469px, -129.0500030517578px);}58.89%{-webkit-transform: translate(114.45500183105469px, 129.0500030517578px) rotate(60deg) translate(-114.45500183105469px, -129.0500030517578px);transform: translate(114.45500183105469px, 129.0500030517578px) rotate(60deg) translate(-114.45500183105469px, -129.0500030517578px);}67.78%{-webkit-transform: translate(114.45500183105469px, 129.0500030517578px) rotate(0deg) translate(-114.45500183105469px, -129.0500030517578px);transform: translate(114.45500183105469px, 129.0500030517578px) rotate(0deg) translate(-114.45500183105469px, -129.0500030517578px);}80%{-webkit-transform: translate(114.45500183105469px, 129.0500030517578px) rotate(70deg) translate(-114.45500183105469px, -129.0500030517578px);transform: translate(114.45500183105469px, 129.0500030517578px) rotate(70deg) translate(-114.45500183105469px, -129.0500030517578px);}100%{-webkit-transform: translate(114.45500183105469px, 129.0500030517578px) rotate(-55deg) translate(-114.45500183105469px, -129.0500030517578px);transform: translate(114.45500183105469px, 129.0500030517578px) rotate(-55deg) translate(-114.45500183105469px, -129.0500030517578px);}}#el_CFMGwO6TR *{-webkit-animation-duration: 3s;animation-duration: 3s;-webkit-animation-iteration-count: infinite;animation-iteration-count: infinite;-webkit-animation-timing-function: cubic-bezier(0, 0, 1, 1);animation-timing-function: cubic-bezier(0, 0, 1, 1);}#el_ZieABJVVUV{fill: red;-webkit-transform: translate(-200.66px, 253.49px) rotate(-60deg);transform: translate(-200.66px, 253.49px) rotate(-60deg);}#el_WFPyISKEU6{fill: red;-webkit-transform: translate(-208.33px, -151.42px) rotate(-2.5deg);transform: translate(-208.33px, -151.42px) rotate(-2.5deg);}#el_TB9Se_uQWo{fill: #fff;-webkit-transform: translate(-197px, -169px);transform: translate(-197px, -169px);}#el__1iCoZ655u{-webkit-transform: translate(-197px, -169px);transform: translate(-197px, -169px);}#el_yqUN4oTU_P_VrKZ0Qybo{-webkit-animation-name: el_yqUN4oTU_P_VrKZ0Qybo_Animation;animation-name: el_yqUN4oTU_P_VrKZ0Qybo_Animation;-webkit-transform: translate(114.45500183105469px, 129.0500030517578px) rotate(-55deg) translate(-114.45500183105469px, -129.0500030517578px);transform: translate(114.45500183105469px, 129.0500030517578px) rotate(-55deg) translate(-114.45500183105469px, -129.0500030517578px);}</style>
  <defs>
    
  </defs>
  <title>speedometer2</title>
  <g id="el_h5E8Ec7eAz" data-name="Layer 1">
    <rect x="350.56" y="206.6" width="26.99" height="15.63" id="el_ZieABJVVUV"/>
    <rect x="383.56" y="260.6" width="26.99" height="15.63" id="el_WFPyISKEU6"/>
    <g id="el_093F_oI-JI">
      <path d="M411.06,306.8a88.82,88.82,0,0,0,6.44-33.1,88.58,88.58,0,0,1-6.6,33.49Zm-200,.39a88.58,88.58,0,0,1-6.6-33.49,88.82,88.82,0,0,0,6.44,33.1ZM417.5,273.7m-213,0,213-.07-213,0,213-.07-213,0,0-.06,213,0-213,0c0-1.67.05-3.34.14-5C204.55,270.12,204.5,271.78,204.5,273.44Zm2.06-18.91c.08-.34.15-.68.23-1L232,268.07l-.5.86ZM240.44,201l.79-.63,24.22,22-.67.74Zm70.06,1.54v-26h1v26Zm-36.61-19.92a114.15,114.15,0,0,1,25.52-5.51A115,115,0,0,0,273.89,182.58Zm57.88-4.23c-2.37-.42-4.76-.78-7.16-1.06C327,177.57,329.41,177.93,331.77,178.35Z" id="el_TB9Se_uQWo"/>
      <path d="M319,169H303v.26c-59.23,3.76-106,49-106,104.24A97,97,0,0,0,208.35,319h205.3A97,97,0,0,0,425,273.5c0-55.25-46.77-100.48-106-104.24V169Zm-16,41h16V184.29c50.86,3.7,91,42.29,91,89.21a81.08,81.08,0,0,1-5.9,30.5H217.9a81.08,81.08,0,0,1-5.9-30.5c0-2.35.1-4.69.3-7l21.95,12.68,8-13.86-26.74-15.44A87.79,87.79,0,0,1,240.27,211l25,22.77L276,221.89l-23-20.92A105,105,0,0,1,303,184.29V210Z" id="el__1iCoZ655u"/>
    </g>
  </g>
  <g id="el_yqUN4oTU_P_VrKZ0Qybo" data-animator-group="true" data-animator-type="1"><g id="el_yqUN4oTU_P">
    <polygon points="115.44 51.54 124.41 98.49 113.8 129.05 104.5 98.07 115.44 51.54" id="el_TxUtZ4Johv"/>
  </g></g>
</svg>